<svg width="216" height="82" viewBox="0 0 216 82" fill="none" xmlns="http://www.w3.org/2000/svg">
<g clip-path="url(#clip0_83_22)">
<mask id="mask0_83_22" style="mask-type:luminance" maskUnits="userSpaceOnUse" x="0" y="0" width="216" height="83">
<path d="M0 82.0826V0H215.666V82.0826H0Z" fill="white"/>
</mask>
<g mask="url(#mask0_83_22)">
<path fill-rule="evenodd" clip-rule="evenodd" d="M0 0V82.1623H215.666V0H0Z" fill="#D91F44"/>
</g>
<path fill-rule="evenodd" clip-rule="evenodd" d="M25.0684 55.4654V53.1676L25.9687 53.1045L27.1218 53.0148C27.3809 53.0015 27.5979 52.9717 27.7598 52.9318L27.9995 52.8588V52.8455L28.0513 52.6894C28.1019 52.46 28.1344 52.2269 28.1485 51.9921L28.2618 50.2821V33.4239L28.1517 31.7205C28.1161 31.2191 28.0319 30.8837 27.98 30.8206H27.9736L27.8213 30.7609C27.5921 30.7033 27.3577 30.6699 27.1218 30.6613H27.1347L25.9655 30.5849L25.0684 30.4853V28.2373H36.1451C38.5645 28.2373 40.4883 28.7354 41.8778 29.8378C42.5579 30.3923 43.0891 31.0929 43.4389 31.8865C43.7757 32.6967 43.9474 33.6065 43.9474 34.6093C43.9538 36.2762 43.4162 37.7671 42.3571 39.0023C41.6251 39.8657 40.6859 40.5829 39.507 41.1872C40.9029 41.6521 42.0753 42.3494 43.0049 43.3057C44.3328 44.6339 44.9967 46.3572 44.9935 48.3064C44.9935 49.4719 44.8121 50.5278 44.4105 51.4409C44.0114 52.3519 43.3887 53.1413 42.6033 53.7321C41 54.9274 38.6843 55.4521 35.6657 55.4654H25.0684ZM33.0391 50.2821L33.0876 51.8128C33.0876 52.1117 33.1395 52.3375 33.1978 52.4802L33.3986 52.7425C33.486 52.809 33.6998 52.8887 34.0463 52.9551C34.3864 53.0049 34.8204 53.0281 35.371 53.0281C36.8155 53.0281 37.8973 52.6097 38.762 51.7663C39.6041 50.9163 40.0316 49.867 40.0446 48.4492C40.0446 47.4231 39.8827 46.5698 39.5782 45.8592C39.2786 45.1596 38.8118 44.5486 38.2211 44.0827C37.1038 43.1928 35.3872 42.6682 33.0391 42.5852V50.2821ZM33.4601 40.1346C34.9467 40.1346 36.0965 39.869 36.9256 39.4041C37.7677 38.926 38.3345 38.2586 38.6811 37.3155C38.8981 36.678 39.0211 35.9242 39.0211 35.0144C39.0211 34.1577 38.9175 33.4438 38.6973 32.896C38.5326 32.4037 38.235 31.9696 37.839 31.6441C37.4762 31.3453 36.9127 31.0929 36.1451 30.9269C35.2098 30.7378 34.2579 30.6488 33.3046 30.6613H33.0391V40.1346H33.4601ZM59.8402 54.9673C59.392 54.517 59.0468 53.9704 58.8297 53.3668C56.9836 55.0204 55.0791 55.9037 53.1456 55.9037C51.4387 55.9136 49.9359 55.3392 48.7699 54.1936C48.1962 53.6427 47.7417 52.9743 47.436 52.2319C47.1302 51.4894 46.98 50.6894 46.9951 49.8836C46.9951 48.7546 47.2347 47.7153 47.6947 46.8288C48.174 45.9322 48.893 45.2017 49.8031 44.614C51.6395 43.4518 54.2565 42.9471 57.654 42.9471H57.7511V41.1872C57.7511 40.1313 57.5957 39.2946 57.3301 38.7135C57.123 38.1918 56.7289 37.7713 56.2289 37.538C55.8377 37.3786 55.4191 37.3018 54.9982 37.3122C53.9844 37.3189 53.3075 37.5679 52.8411 38.0062C52.3683 38.4379 52.0638 39.1186 51.9537 40.1579L51.9083 41.071H48.4104V36.5485L48.7861 36.3758C51.2152 35.2834 53.5083 34.7222 55.6297 34.7222C57.2297 34.7222 58.5641 34.9978 59.6588 35.6088C60.7373 36.1999 61.5244 37.1429 61.9422 38.3416C62.2369 39.1484 62.36 40.0516 62.36 41.0511V49.5449C62.36 50.5577 62.4377 51.3479 62.5964 51.9224C62.7324 52.5035 62.93 52.8189 63.0984 52.9418L63.4838 53.0613C63.7396 53.0495 63.9929 53.006 64.2385 52.9318L64.9607 52.7425L65.1551 55.2661L64.7081 55.4322C63.9349 55.7255 63.1194 55.8849 62.2952 55.9037H62.2758C61.3365 55.9037 60.4815 55.5915 59.8402 54.9673ZM53.9391 45.8924C53.0516 46.2908 52.4946 46.8487 52.1577 47.5825C51.9375 48.0806 51.8209 48.6749 51.8209 49.4021C51.8241 50.3584 52.0994 51.079 52.6824 51.6933C53.2654 52.3042 53.9456 52.5898 54.8427 52.6031C55.6103 52.6031 56.5917 52.2611 57.7544 51.4974V45.2781H57.5665C56.0346 45.2781 54.8071 45.5105 53.9391 45.8924Z" fill="#FFFFFE"/>
<path fill-rule="evenodd" clip-rule="evenodd" d="M65.3591 62.4023L72.1476 54.712C72.1476 54.712 65.8352 39.2617 65.6214 38.7736C65.4838 38.4649 65.3179 38.1702 65.1259 37.8937L64.7826 37.6413C64.598 37.5593 64.4005 37.5121 64.1996 37.5019L63.2798 37.4554V35.1443L73.0383 35.1476V37.5052H70.9331C70.7312 37.4973 70.5296 37.5254 70.3371 37.5882L70.3954 37.8472L74.8909 49.0373C74.8909 49.0373 79.5418 38.2158 79.652 37.814L79.6908 37.6081C79.4905 37.5256 79.2748 37.4893 79.0592 37.5019H77.1516V35.1476H83.9175V37.4454L83.0171 37.5019C82.8487 37.5251 82.6608 37.5882 82.4373 37.8472C82.2106 38.0863 81.9612 38.5113 81.7151 39.099C81.6309 39.3315 71.4221 62.4023 71.4221 62.4023H65.3591ZM85.0834 55.4657V53.168L85.9968 53.1049L87.1368 53.0152C87.4121 53.0019 87.6324 52.9721 87.7749 52.9322L88.0081 52.8592L88.0178 52.8459L88.0696 52.6898C88.1117 52.5304 88.1473 52.2914 88.1571 51.9925L88.2769 50.2825V40.3442L88.1571 38.6441C88.1621 38.3395 88.1116 38.0365 88.0081 37.7509H87.9984L87.8429 37.7044C87.6133 37.6351 87.376 37.596 87.1368 37.5882L85.9968 37.5019L85.0867 37.4454V35.1476H92.8922V37.3857C93.4104 36.7548 93.9999 36.2368 94.625 35.825C95.7261 35.0945 96.9893 34.7226 98.3496 34.7226C98.7674 34.7226 99.2079 34.8123 99.6678 34.9484L100.121 35.0779V41.3935H97.0476L96.9375 40.5136L96.7917 39.192V39.182C96.7755 38.9596 96.7107 38.8932 96.701 38.8832C96.6719 38.8666 96.6557 38.8301 96.4646 38.8234C95.7197 38.8301 95.0784 39.0127 94.4792 39.4078C93.8348 39.866 93.2936 40.4604 92.8922 41.1511V50.2891C92.8922 50.9665 92.9116 51.5044 92.957 51.9261C93.0055 52.3312 93.0865 52.6101 93.1254 52.6832L93.3489 52.8791C93.4784 52.9455 93.7051 53.0019 94.0193 53.0152H94.0258L95.1755 53.1049L96.5035 53.1381V55.4624H85.0834M113.753 54.9677C113.308 54.5167 112.965 53.9701 112.749 53.3672C110.893 55.0208 108.992 55.9041 107.062 55.9041C105.355 55.914 103.849 55.3396 102.677 54.194C102.106 53.6413 101.655 52.9723 101.351 52.23C101.048 51.4878 100.899 50.6886 100.915 49.884C100.908 48.755 101.141 47.7157 101.611 46.8291C102.11 45.9147 102.835 45.151 103.713 44.6144C105.553 43.4522 108.15 42.9475 111.574 42.9475H111.664V41.1876C111.664 40.1317 111.509 39.2949 111.253 38.7139C111.04 38.1927 110.643 37.7729 110.142 37.5384C109.753 37.3802 109.336 37.3035 108.918 37.3126C107.907 37.3192 107.221 37.5683 106.748 38.0066C106.278 38.4383 105.98 39.119 105.873 40.1583L105.818 41.0714H102.33V36.5489L102.693 36.3762C105.132 35.2838 107.412 34.7226 109.54 34.7226C111.143 34.7226 112.487 34.9982 113.565 35.6092C114.647 36.2002 115.438 37.1433 115.852 38.342C116.144 39.1488 116.28 40.052 116.28 41.0515V49.5453C116.28 50.5581 116.357 51.3483 116.513 51.9228C116.642 52.5039 116.856 52.8193 117.021 52.9422C117.131 53.0285 117.235 53.0617 117.407 53.0617C117.523 53.0617 117.799 53.0285 118.158 52.9322L118.864 52.7429L119.068 55.2665L118.615 55.4325C117.85 55.7243 117.043 55.8836 116.228 55.9041H116.199C115.259 55.9041 114.398 55.5919 113.753 54.9677ZM107.859 45.8928C106.968 46.2912 106.408 46.8491 106.081 47.5829C105.854 48.081 105.731 48.6753 105.731 49.4025C105.741 50.3588 106.022 51.0794 106.599 51.6937C106.88 51.9919 107.219 52.2268 107.594 52.3834C107.968 52.5401 108.371 52.615 108.775 52.6035C109.52 52.6035 110.498 52.2615 111.664 51.4978V45.2785H111.47C109.945 45.2785 108.733 45.5109 107.859 45.8928ZM143.327 55.4657V53.168L144.256 53.1049L145.406 53.0152C145.637 53.012 145.865 52.9659 146.08 52.8791L146.284 52.6898C146.38 52.4464 146.437 52.1884 146.452 51.9261C146.507 51.5044 146.517 50.9632 146.517 50.2891V41.606C146.517 40.8855 146.481 40.2911 146.397 39.8129C146.353 39.4619 146.233 39.1252 146.047 38.8267C145.92 38.6348 145.741 38.4848 145.533 38.3951C145.209 38.2808 144.868 38.2257 144.525 38.2324C143.816 38.2324 143.045 38.4416 142.187 38.8965C141.28 39.4258 140.442 40.0707 139.693 40.8157V50.2858L139.8 51.9958C139.816 52.2681 139.839 52.4806 139.874 52.6267L139.955 52.8625H139.962L140.124 52.9222C140.279 52.9687 140.506 53.0053 140.82 53.0219L141.97 53.1082L142.88 53.1713V55.4691H131.881V53.1713L132.785 53.1082L133.96 53.0185C134.184 53.0162 134.405 52.97 134.611 52.8824L134.828 52.6931C134.916 52.4472 134.97 52.1903 134.99 51.9294C135.045 51.5077 135.071 50.9665 135.071 50.2924V41.606C135.071 40.1715 134.857 39.2252 134.595 38.8334C134.468 38.6417 134.292 38.4891 134.087 38.3918C133.769 38.2778 133.435 38.2238 133.099 38.2324C132.312 38.2324 131.512 38.4416 130.666 38.8965C129.883 39.3248 129.066 39.959 128.231 40.8091V50.2924C128.231 50.9698 128.253 51.5077 128.296 51.9294C128.334 52.3345 128.425 52.6134 128.458 52.6865L128.687 52.8824C128.827 52.9488 129.05 53.0053 129.348 53.0185H129.364L130.508 53.1082L131.431 53.1713V55.4691H120.419V53.1713L121.326 53.1082L122.462 53.0185C122.748 53.0053 122.968 52.9754 123.11 52.9355L123.35 52.8625V52.8492L123.405 52.6931C123.441 52.5338 123.476 52.2947 123.512 51.9958L123.609 50.2858V40.3442L123.512 38.6441C123.476 38.1527 123.382 37.814 123.33 37.7642V37.7509L123.169 37.7044C122.939 37.6338 122.702 37.5947 122.462 37.5882L121.329 37.5019L120.422 37.4454V35.1476H128.231V37.6413C128.86 36.9368 129.579 36.3225 130.368 35.8151C131.486 35.1068 132.773 34.7277 134.087 34.7193C135.531 34.7193 136.768 35.0945 137.695 35.8682C138.375 36.4227 138.854 37.1665 139.165 38.073C140.039 37.1267 140.94 36.3663 141.847 35.8151C143.045 35.0945 144.263 34.7193 145.516 34.7193C146.407 34.7193 147.217 34.8521 147.932 35.1078C148.626 35.3768 149.26 35.7852 149.746 36.3364C150.718 37.4421 151.162 39.0027 151.149 40.9751V50.2891C151.149 50.9665 151.162 51.5077 151.223 51.9261C151.246 52.1868 151.302 52.4434 151.388 52.6898L151.609 52.8791C151.745 52.9455 151.965 53.0019 152.289 53.0152L153.429 53.1049L154.336 53.168V55.4657H143.327ZM155.592 55.4657V53.168L156.493 53.1049L157.642 53.0152C157.905 53.0019 158.122 52.9721 158.271 52.9322L158.504 52.8592L158.51 52.8459H158.517L158.562 52.6898C158.629 52.4637 158.661 52.2286 158.659 51.9925L158.773 50.2825V40.3442L158.659 38.6441C158.663 38.3433 158.61 38.0446 158.504 37.7642L158.494 37.7509L158.348 37.7044C158.113 37.636 157.871 37.5969 157.626 37.5882L156.493 37.5019L155.589 37.4454V35.1476H163.385V50.2891C163.385 50.9665 163.414 51.5077 163.459 51.9261C163.498 52.3312 163.592 52.6101 163.628 52.6832L163.858 52.8791C163.981 52.9455 164.204 53.0019 164.518 53.0152L165.675 53.1049L166.582 53.168V55.4657H155.592ZM158.773 32.9495H163.385V28.2344H158.773V32.9495ZM178.876 55.4657V53.1248H179.783L180.596 53.1049C180.797 53.1049 180.975 53.1049 181.101 53.085L180.874 52.7197C180.406 52.0378 179.922 51.3669 179.423 50.7075L177.004 47.5165L174.568 50.7042C173.733 51.8331 173.16 52.6367 172.875 53.0816C172.998 53.0916 173.176 53.1049 173.393 53.1049L174.053 53.1248H175.067V55.4657H167.76V53.168L168.615 53.1049C168.856 53.0791 169.087 52.9949 169.289 52.8592C169.545 52.6931 169.84 52.4441 170.131 52.0921L172.016 49.9272L175.589 45.5773L171.939 40.7626L170.254 38.6441C169.963 38.2623 169.645 37.98 169.36 37.8007C169.117 37.6287 168.833 37.5256 168.538 37.5019L167.657 37.4454V35.1476H177.357V37.5052H176.405L175.712 37.5251H175.683L175.258 37.5517L175.514 37.9734C175.835 38.4482 176.304 39.1289 176.939 40.0055L179.119 42.994L181.198 40.0753C181.992 38.9596 182.487 38.1527 182.698 37.721L182.776 37.5384L182.439 37.5052H180.78V35.1476H187.967V37.4554L187.031 37.5019C186.753 37.5295 186.486 37.6276 186.254 37.7874C185.992 37.9601 185.694 38.239 185.415 38.6176V38.6275L183.763 40.7526L180.583 44.9199L184.34 49.9338C185.172 51.0196 185.882 51.8265 186.474 52.3511C187.048 52.8791 187.537 53.1016 187.744 53.1049H187.773L188.609 53.168V55.4657H178.876ZM193.936 28.6096C194.361 28.6109 194.782 28.698 195.174 28.8659C195.566 29.0338 195.922 29.2793 196.222 29.5882C196.521 29.8972 196.758 30.2636 196.92 30.6665C197.081 31.0695 197.164 31.5011 197.162 31.9367C197.161 32.3723 197.076 32.8034 196.912 33.2054C196.749 33.6074 196.509 33.9723 196.208 34.2794C195.906 34.5865 195.549 34.8297 195.156 34.9952C194.763 35.1607 194.342 35.2452 193.917 35.2439C192.058 35.2439 190.575 33.7829 190.575 31.9135C190.575 30.0839 192.058 28.6096 193.917 28.6096H193.936ZM193.898 29.277C192.479 29.277 191.41 30.4591 191.41 31.9135C191.41 33.3778 192.479 34.5533 193.936 34.5533C195.362 34.5632 196.408 33.3778 196.408 31.9135C196.408 30.4591 195.358 29.277 193.914 29.277H193.898ZM193.405 33.6269H192.651V30.3396C192.949 30.2831 193.363 30.2167 193.898 30.2167C194.5 30.2167 194.782 30.323 195.021 30.4823C195.12 30.5705 195.198 30.6792 195.252 30.8013C195.306 30.9233 195.333 31.0558 195.332 31.1896C195.332 31.5681 195.057 31.8471 194.665 31.9699V32.0164C194.983 32.1227 195.164 32.375 195.261 32.8266C195.358 33.3247 195.417 33.5306 195.498 33.6235H194.681C194.597 33.5073 194.526 33.2218 194.422 32.8399C194.361 32.478 194.176 32.3186 193.755 32.3186H193.405V33.6269ZM193.421 31.7773H193.775C194.196 31.7773 194.526 31.6279 194.526 31.2859C194.526 30.9937 194.309 30.7878 193.83 30.7878C193.693 30.7858 193.556 30.7992 193.421 30.8277V31.7773Z" fill="#FFFFFE"/>
</g>
<defs>
<clipPath id="clip0_83_22">
<rect width="216" height="82" rx="9" fill="white"/>
</clipPath>
</defs>
</svg>
