<svg width="222" height="82" viewBox="0 0 222 82" fill="none" xmlns="http://www.w3.org/2000/svg">
<rect width="222" height="82" rx="9" fill="white"/>
<path d="M15.6948 25.1719H37.3802V34.3039H17.0141C16.168 31.3353 15.7241 28.2629 15.6948 25.1719Z" fill="#F48120"/>
<path d="M22.6916 46.9041C20.8071 43.9714 19.228 40.8465 17.98 37.5801H40.4899V46.8921C40.4899 46.8921 33.5638 46.8081 22.6916 46.8921" fill="#F48120"/>
<path d="M41.8565 63.8C41.5186 63.9808 41.1427 64.0753 40.7611 64.0753C40.3794 64.0753 40.0035 63.9808 39.6656 63.8C35.6378 61.5124 31.992 58.588 28.8641 55.136C28.7463 54.956 28.6756 54.776 28.7228 54.656C28.7699 54.536 29.3471 54.416 30.0303 54.416H52.5402C52.6073 54.42 52.6725 54.4407 52.73 54.4763C52.7875 54.5118 52.8355 54.5612 52.87 54.62C52.87 54.728 52.87 54.896 52.7404 55.076C49.5974 58.5622 45.922 61.5082 41.8565 63.8Z" fill="#F48120"/>
<path d="M58.8538 46.9998C58.3238 47.8518 57.7701 48.6918 57.193 49.5198L57.0163 49.7598L56.4744 50.5038C56.392 50.5878 56.3213 50.6358 56.2624 50.6238C56.2035 50.6118 56.1682 50.5158 56.1564 50.3838V49.7118C56.1564 49.6038 56.1564 49.4838 56.1564 49.3638V38.4798L53.3176 37.3998V27.2958L39.5125 21.7998H21.0192C20.8896 21.7998 20.8896 21.7998 20.8896 21.7998C20.8896 21.7998 20.8896 21.7158 20.9603 21.6678C23.1563 20.8366 25.408 20.1669 27.698 19.6638C31.986 18.6737 36.3646 18.1468 40.7611 18.0918C45.1712 18.124 49.5657 18.6308 53.8712 19.6038C57.7877 20.375 61.555 21.7895 65.0261 23.7918C65.2679 23.9338 65.4704 24.136 65.6147 24.3794C65.7589 24.6229 65.8401 24.8996 65.8506 25.1838C65.8506 32.2878 63.1768 40.0278 58.8774 46.9878" fill="#F48120"/>
<path d="M93.6849 44.7921H77.9597V41.7201H93.6024C94.0023 41.709 94.3901 41.8601 94.6806 42.1403C94.9711 42.4205 95.1404 42.8067 95.1514 43.2141C95.1623 43.6215 95.0139 44.0166 94.7389 44.3125C94.4639 44.6084 94.0847 44.7809 93.6849 44.7921ZM77.9597 36.5241H93.5317C93.9129 36.5241 94.2784 36.6783 94.5479 36.9529C94.8174 37.2274 94.9688 37.5998 94.9688 37.9881C94.9688 38.3764 94.8174 38.7487 94.5479 39.0233C94.2784 39.2978 93.9129 39.4521 93.5317 39.4521H77.9597V36.5241ZM95.9347 40.4001C96.5218 40.0005 96.9671 39.4189 97.2044 38.7414C97.4418 38.0639 97.4586 37.3265 97.2524 36.6385C97.0462 35.9505 96.628 35.3484 96.0597 34.9215C95.4914 34.4946 94.8032 34.2654 94.0971 34.2681H75.5332V47.0001H94.3798C95.156 46.9969 95.9084 46.7274 96.5156 46.2349C97.1229 45.7425 97.5495 45.0558 97.7265 44.286C97.9035 43.5161 97.8206 42.7079 97.4912 41.992C97.1618 41.276 96.6052 40.6941 95.9111 40.3401" fill="#F48120"/>
<path d="M102.425 36.5118H117.478C117.947 36.5118 118.396 36.7014 118.728 37.039C119.059 37.3766 119.245 37.8344 119.245 38.3118C119.245 38.7892 119.059 39.247 118.728 39.5846C118.396 39.9221 117.947 40.1118 117.478 40.1118H102.425V36.5118ZM119.174 46.9998H121.978L118.656 42.1998C119.627 41.9959 120.487 41.4308 121.071 40.6149C121.654 39.7989 121.917 38.7908 121.81 37.7874C121.702 36.7841 121.232 35.8576 120.489 35.1889C119.747 34.5203 118.787 34.1577 117.796 34.1718H99.998V46.9998H102.425V42.3198H115.9L119.174 46.9998Z" fill="#F48120"/>
<path d="M173.641 36.5118H188.695C189.164 36.5118 189.613 36.7014 189.944 37.039C190.276 37.3766 190.462 37.8344 190.462 38.3118C190.462 38.7892 190.276 39.247 189.944 39.5846C189.613 39.9221 189.164 40.1118 188.695 40.1118H173.641V36.5118ZM190.391 46.9998H193.195L189.861 42.1998C190.832 41.9959 191.692 41.4308 192.276 40.6149C192.859 39.7989 193.122 38.7908 193.015 37.7874C192.907 36.7841 192.437 35.8576 191.694 35.1889C190.952 34.5203 189.992 34.1577 189.001 34.1718H171.215V46.9998H173.641V42.3198H187.117L190.391 46.9998Z" fill="#F48120"/>
<path d="M126.23 39.5241V38.3241C126.23 37.8529 126.411 37.4005 126.735 37.0639C127.059 36.7274 127.499 36.5336 127.962 36.5241H143.18V39.5361L126.23 39.5241ZM127.62 34.2561C126.601 34.2991 125.637 34.7388 124.927 35.4846C124.217 36.2303 123.815 37.2252 123.804 38.2641V47.0001H126.23V41.7801H143.18V47.0001H145.607V34.2441L127.62 34.2561Z" fill="#F48120"/>
<path d="M168.871 44.8039H150.649V41.7799H165.255V39.5239H150.649V36.4999H168.871V34.2559H148.199V47.0479H168.871V44.8039Z" fill="#F48120"/>
</svg>
