<svg width="94" height="82" viewBox="0 0 94 82" fill="none" xmlns="http://www.w3.org/2000/svg">
<rect width="94" height="82" rx="9" fill="white"/>
<g clip-path="url(#clip0_83_38)">
<path d="M12.0568 36.8708L12.142 67.77L12.7952 69.332C14.1016 72.5412 16.4588 74.8984 19.668 76.2048L21.23 76.858L52.1292 76.9432L83 77L82.9432 46.1292C82.858 15.514 82.858 15.23 82.2616 13.7816C80.9268 10.5156 78.4844 8.0448 75.4172 6.7952L73.77 6.142L42.8708 6.0568L12 6L12.0568 36.8708ZM68.8 22.0744C72.776 23.3808 75.6444 25.738 76.6668 28.5212C76.8372 29.0324 77.0076 30.3388 77.0076 31.4464C77.036 33.548 77.0076 33.6048 74.7924 37.666C74.338 38.4896 74.2244 39.086 74.338 39.796C74.4232 40.3356 74.338 41.2444 74.1392 41.784C73.628 43.1756 71.924 46.044 71.6116 46.044C71.1856 46.044 71.3276 45.5612 72.066 44.4536C72.9464 43.1756 73.4292 41.4716 73.06 41.1024C72.8612 40.9036 72.3216 41.3012 71.498 42.21C70.788 42.9484 70.1632 43.5164 70.078 43.4596C70.0212 43.3744 70.4756 42.636 71.072 41.784C71.6968 40.932 72.2932 40.0516 72.3784 39.8528C72.6624 39.2848 72.2648 38.6884 71.4412 38.4896C70.504 38.2624 69.652 37.5808 69.652 37.0412C69.652 36.4448 70.1348 36.6152 70.3052 37.2684C70.4472 37.808 70.6176 37.8648 71.5832 37.7512C74.9628 37.2968 76.752 34.5988 75.9 31.2192C75.4456 29.4584 74.5368 28.6632 72.4352 28.2372C70.5892 27.868 69.0272 26.9592 68.4876 25.9652C68.232 25.454 67.806 25.312 66.2724 25.1416C64.682 24.9712 64.4832 24.9144 65.0512 24.6588C67.1244 23.7216 62.3532 22.614 59.3144 23.324C57.6104 23.6932 55.7644 25.312 56.9856 25.312C57.8376 25.312 57.44 25.8232 55.6792 26.9876C54.6852 27.6408 52.6688 29.0608 51.192 30.14C48.21 32.3268 43.382 34.4852 41.4508 34.4852C40.826 34.4852 40.5136 34.5704 40.684 34.684C40.8828 34.7976 40.4852 34.8544 39.8036 34.7976C39.122 34.7408 37.7872 34.6556 36.8216 34.5704C34.6632 34.4284 32.022 33.3492 32.4764 32.8096C32.6468 32.6108 32.7036 32.2984 32.6184 32.1564C32.5048 31.986 32.732 31.7304 33.0728 31.5316C34.01 31.0488 34.01 31.0488 33.2716 30.424C32.6752 29.9412 32.6752 29.8844 33.158 30.0548C33.4704 30.14 33.7828 30.3104 33.868 30.424C33.9532 30.5092 34.4928 30.7364 35.0608 30.9068C36.1116 31.2192 36.0832 31.1624 33.9248 29.0608C32.7036 27.8396 31.5392 26.59 31.3688 26.2492L31.028 25.6244L32.3628 26.0504C39.832 28.3224 51.7316 27.3568 55.6224 24.1192C57.1844 22.8412 59.2008 21.7336 60.7628 21.336C62.552 20.8816 66.2156 21.2224 68.8 22.0744ZM28.6708 35.0816C29.75 35.5928 30.318 36.0756 30.8292 37.0128C33.0444 40.8184 31.3688 45.902 27.5348 47.038C26.342 47.3788 19.8384 47.6912 19.6112 47.3788C19.5828 47.3504 19.4976 44.4252 19.4124 40.8468L19.242 34.4H23.218C26.8248 34.4 27.336 34.4568 28.6708 35.0816ZM46.8752 35.5928C47.1308 35.8484 47.216 37.5808 47.216 41.6988V47.464H45.796C44.8872 47.464 44.3192 47.322 44.234 47.0948C44.1772 46.9244 44.0636 44.1696 44.0352 40.9888L43.95 35.252H45.2564C45.9664 35.252 46.6764 35.394 46.8752 35.5928ZM73.2304 35.962C73.4292 36.4732 72.8328 37.2968 72.4636 37.0696C72.3216 36.9844 72.208 36.6152 72.208 36.2176C72.208 35.4508 72.9748 35.252 73.2304 35.962ZM36.14 38.8304C36.3104 39.228 36.424 40.8752 36.424 42.4656C36.424 45.7032 36.6228 46.1576 38.0428 45.9872C39.2356 45.8452 39.548 44.9364 39.548 41.2728V38.092H40.826C41.7916 38.092 42.1608 38.234 42.388 38.6316C42.53 38.944 42.672 40.9604 42.672 43.1472V47.1232L41.3372 47.2936C36.14 47.9468 35.2028 47.8616 34.0668 46.7256C33.2432 45.902 33.0728 44.9932 32.9592 40.8468L32.874 38.092H34.3792C35.714 38.092 35.8844 38.1772 36.14 38.8304ZM51.76 41.6704C51.902 45.4192 52.1576 46.044 53.4356 46.044C54.742 46.044 54.884 45.6464 54.884 41.7272V38.092H56.304C58.15 38.092 58.2068 38.2624 58.0648 43.2608L57.9512 47.1232L56.7868 47.2936C53.2084 47.7764 51.5896 47.8048 50.5388 47.3788C49.0336 46.7256 48.6928 45.76 48.5792 41.5568L48.494 38.0636L50.056 38.1488L51.618 38.234L51.76 41.6704ZM63.404 39.228L64.4832 40.3924L65.392 39.228C66.1872 38.2056 66.4144 38.092 67.5504 38.092C68.232 38.092 68.8 38.1772 68.8 38.2624C68.8 38.3476 68.09 39.3132 67.238 40.3924L65.7044 42.3804L67.522 44.8512L69.3396 47.322L67.8628 47.4072C66.102 47.5208 65.4772 47.2084 64.5684 45.8452L63.8868 44.7944L62.7224 46.1292C61.6716 47.322 61.4444 47.464 60.3652 47.464C59.6836 47.464 59.144 47.3504 59.144 47.2368C59.144 47.1232 59.854 46.1576 60.706 45.1068C61.558 44.0844 62.268 43.062 62.268 42.8632C62.268 42.6644 61.5012 41.5 60.564 40.2788L58.86 38.092H60.6208C62.2964 38.092 62.41 38.1488 63.404 39.228ZM20.236 53.7688C20.236 56.5236 20.3212 56.836 21.2016 57.3188C21.9684 57.7448 21.3152 58.0004 20.4916 57.6028C19.8384 57.262 19.81 57.12 19.7248 54.1948C19.668 52.2352 19.7532 51.156 19.952 51.156C20.1224 51.156 20.236 52.1784 20.236 53.7688ZM29.04 52.008C29.04 52.6612 29.1536 52.86 29.608 52.86C29.9204 52.86 30.176 52.9736 30.176 53.144C30.176 53.286 29.9204 53.428 29.608 53.428C29.0968 53.428 29.04 53.6268 29.04 55.132C29.04 56.5236 29.1536 56.8928 29.608 57.1768C30.3464 57.6312 30.3464 57.972 29.608 57.7732C28.5004 57.4892 28.188 56.5804 28.188 53.7972C28.188 51.6388 28.2732 51.156 28.614 51.156C28.898 51.156 29.04 51.44 29.04 52.008ZM32.448 51.4684C32.448 51.9228 31.88 52.86 31.6244 52.86C31.4824 52.86 31.5108 52.4624 31.6812 52.008C31.9936 51.1844 32.448 50.8436 32.448 51.4684ZM53.2368 54.0528C53.322 56.7792 53.3504 56.978 53.9752 57.2904C54.7988 57.688 54.4296 58.0004 53.5492 57.6596C52.5836 57.2904 52.328 56.4952 52.328 53.7404C52.328 51.6672 52.4132 51.156 52.754 51.156C53.0664 51.156 53.18 51.724 53.2368 54.0528ZM26.2284 53.3428C26.5124 53.6268 26.8248 54.1948 26.91 54.6208L27.1088 55.416H24.8084C22.9624 55.416 22.508 55.5012 22.508 55.842C22.508 56.9212 24.6664 57.404 26.3136 56.694C26.7112 56.5236 26.8248 56.552 26.7112 56.8644C26.484 57.5176 24.6948 57.972 23.5304 57.6596C21.2868 57.0348 21.0312 53.7404 23.1896 52.8316C24.0416 52.4908 25.6604 52.7464 26.2284 53.3428ZM35.5436 52.8884C36.9068 53.3712 36.5944 53.6836 34.862 53.5132C33.5556 53.3712 33.2716 53.428 33.1296 53.854C32.874 54.4504 33.3284 54.7344 34.8904 54.99C36.2536 55.1888 36.7932 55.6716 36.6512 56.6088C36.5376 57.546 34.8052 58.0856 33.4136 57.6028C32.8456 57.4324 32.448 57.12 32.5048 56.978C32.5332 56.8076 32.732 56.7508 32.874 56.8076C34.3792 57.4324 36.5092 56.9212 35.8276 56.0976C35.6572 55.8704 35.3448 55.7 35.1744 55.7C35.004 55.7 34.3792 55.558 33.8112 55.416C32.0504 54.9048 31.7096 53.4564 33.2432 52.8884C34.2656 52.5192 34.4928 52.5192 35.5436 52.8884ZM44.2908 53.002C45.0292 53.3144 45.228 53.5416 45.0292 53.7404C44.802 53.9676 44.5464 53.9676 44.1488 53.7404C43.098 53.1724 41.9052 53.3712 41.2804 54.1664C40.5136 55.1604 40.542 55.558 41.4224 56.4384C42.1608 57.1768 42.8708 57.2336 44.6032 56.694C44.944 56.5804 45.228 56.6088 45.228 56.7508C45.228 57.2052 43.8648 57.688 42.6436 57.688C39.8604 57.688 39.0936 54.1096 41.6212 53.002C42.7856 52.4908 43.0412 52.4908 44.2908 53.002ZM50.5388 53.286C51.334 53.7972 51.6464 55.3876 51.1636 56.2964C50.624 57.3472 50.0276 57.6596 48.6928 57.688C47.1308 57.688 46.08 56.7508 46.08 55.3592C46.08 53.0304 48.4372 51.9228 50.5388 53.286ZM58.434 52.9736C60.1096 53.6836 60.564 55.7284 59.286 56.978C58.3204 57.972 56.2756 57.972 55.31 56.978C54.0604 55.7568 54.458 53.712 56.1052 53.002C57.2412 52.4908 57.2696 52.4908 58.434 52.9736ZM69.368 52.86C69.368 53.002 69.226 53.144 69.0272 53.144C68.1468 53.144 67.664 54.0812 67.664 55.8988C67.664 57.2904 67.5788 57.688 67.238 57.688C66.6132 57.688 66.6416 54.6492 67.2664 53.7688C67.8912 52.8884 69.368 52.2636 69.368 52.86ZM61.7 54.4788C61.7 56.3248 62.2112 57.12 63.4324 57.12C64.682 57.12 65.108 56.4668 65.108 54.5356C65.108 53.1724 65.1932 52.86 65.5624 52.86C66.3008 52.86 65.9884 56.3532 65.1932 57.1768C64.4264 57.9152 62.4952 57.972 61.7284 57.2904C61.1888 56.7792 60.706 54.138 61.0184 53.3144C61.3876 52.3772 61.7 52.9168 61.7 54.4788Z" fill="black"/>
<path d="M23.0762 40.7617V45.4761H24.4394C26.9386 45.4761 28.0178 44.0277 28.0178 40.6197C28.0462 37.4673 27.393 36.6437 24.5814 36.2461L23.0762 36.0473V40.7617Z" fill="black"/>
<path d="M22.9906 53.9393C22.7066 54.2233 22.5078 54.5641 22.5078 54.6493C22.5078 54.7629 23.3314 54.8481 24.3538 54.8481C26.285 54.8481 26.5406 54.6777 25.6886 53.9109C24.9786 53.2861 23.5586 53.3145 22.9906 53.9393Z" fill="black"/>
<path d="M47.3866 53.8538C46.5062 54.7342 46.6198 56.2394 47.6138 56.8926C48.2102 57.2902 49.687 57.1198 50.1414 56.6086C50.7662 55.8986 50.7378 54.4786 50.113 53.9106C49.4598 53.3142 47.9546 53.2858 47.3866 53.8538Z" fill="black"/>
<path d="M55.8779 53.9961C54.7703 55.2173 55.6223 57.1201 57.2979 57.1201C58.9735 57.1201 59.8255 55.2173 58.7179 53.9961C58.0363 53.2577 56.5595 53.2577 55.8779 53.9961Z" fill="black"/>
</g>
<defs>
<clipPath id="clip0_83_38">
<rect width="71" height="71" fill="white" transform="translate(12 6)"/>
</clipPath>
</defs>
</svg>
