<svg width="400" height="121" viewBox="0 0 400 121" fill="none" xmlns="http://www.w3.org/2000/svg">
<path d="M5.57435 13.6843C6.2449 8.83905 6.54761 6.89768 7.53059 5.37976C8.37729 4.07227 9.65548 2.95879 11.0667 2.29932C11.8494 1.93355 12.7651 1.72264 14.1379 1.61277C15.5331 1.50111 17.2891 1.5 19.7472 1.5H380.253C382.711 1.5 384.467 1.50111 385.862 1.61277C387.235 1.72264 388.151 1.93355 388.933 2.29932C390.345 2.95879 391.623 4.07227 392.469 5.37975C393.452 6.89769 393.755 8.83905 394.426 13.6843C396.204 26.5319 398.5 45.9549 398.5 60.5C398.5 75.0451 396.204 94.4681 394.426 107.316C393.755 112.161 393.452 114.102 392.469 115.62C391.623 116.928 390.345 118.041 388.933 118.701C388.151 119.066 387.235 119.277 385.862 119.387C384.467 119.499 382.711 119.5 380.253 119.5H19.7472C17.2891 119.5 15.5331 119.499 14.1379 119.387C12.7651 119.277 11.8494 119.066 11.0667 118.701C9.65548 118.041 8.37729 116.928 7.53059 115.62C6.54761 114.102 6.2449 112.161 5.57435 107.316C3.79631 94.4681 1.5 75.0451 1.5 60.5C1.5 45.9549 3.79631 26.5319 5.57435 13.6843Z" fill="url(#paint0_linear_56_60)"/>
<path d="M5.57435 13.6843C6.2449 8.83905 6.54761 6.89768 7.53059 5.37976C8.37729 4.07227 9.65548 2.95879 11.0667 2.29932C11.8494 1.93355 12.7651 1.72264 14.1379 1.61277C15.5331 1.50111 17.2891 1.5 19.7472 1.5H380.253C382.711 1.5 384.467 1.50111 385.862 1.61277C387.235 1.72264 388.151 1.93355 388.933 2.29932C390.345 2.95879 391.623 4.07227 392.469 5.37975C393.452 6.89769 393.755 8.83905 394.426 13.6843C396.204 26.5319 398.5 45.9549 398.5 60.5C398.5 75.0451 396.204 94.4681 394.426 107.316C393.755 112.161 393.452 114.102 392.469 115.62C391.623 116.928 390.345 118.041 388.933 118.701C388.151 119.066 387.235 119.277 385.862 119.387C384.467 119.499 382.711 119.5 380.253 119.5H19.7472C17.2891 119.5 15.5331 119.499 14.1379 119.387C12.7651 119.277 11.8494 119.066 11.0667 118.701C9.65548 118.041 8.37729 116.928 7.53059 115.62C6.54761 114.102 6.2449 112.161 5.57435 107.316C3.79631 94.4681 1.5 75.0451 1.5 60.5C1.5 45.9549 3.79631 26.5319 5.57435 13.6843Z" fill="url(#paint1_radial_56_60)" fill-opacity="0.3"/>
<path d="M5.57435 13.6843C6.2449 8.83905 6.54761 6.89768 7.53059 5.37976C8.37729 4.07227 9.65548 2.95879 11.0667 2.29932C11.8494 1.93355 12.7651 1.72264 14.1379 1.61277C15.5331 1.50111 17.2891 1.5 19.7472 1.5H380.253C382.711 1.5 384.467 1.50111 385.862 1.61277C387.235 1.72264 388.151 1.93355 388.933 2.29932C390.345 2.95879 391.623 4.07227 392.469 5.37975C393.452 6.89769 393.755 8.83905 394.426 13.6843C396.204 26.5319 398.5 45.9549 398.5 60.5C398.5 75.0451 396.204 94.4681 394.426 107.316C393.755 112.161 393.452 114.102 392.469 115.62C391.623 116.928 390.345 118.041 388.933 118.701C388.151 119.066 387.235 119.277 385.862 119.387C384.467 119.499 382.711 119.5 380.253 119.5H19.7472C17.2891 119.5 15.5331 119.499 14.1379 119.387C12.7651 119.277 11.8494 119.066 11.0667 118.701C9.65548 118.041 8.37729 116.928 7.53059 115.62C6.54761 114.102 6.2449 112.161 5.57435 107.316C3.79631 94.4681 1.5 75.0451 1.5 60.5C1.5 45.9549 3.79631 26.5319 5.57435 13.6843Z" stroke="url(#paint2_radial_56_60)" stroke-width="3"/>
<defs>
<linearGradient id="paint0_linear_56_60" x1="200" y1="0" x2="200" y2="121" gradientUnits="userSpaceOnUse">
<stop stop-color="#DB9554"/>
<stop offset="1" stop-color="#D07D30"/>
</linearGradient>
<radialGradient id="paint1_radial_56_60" cx="0" cy="0" r="1" gradientUnits="userSpaceOnUse" gradientTransform="translate(200) rotate(90) scale(121 251.625)">
<stop stop-color="white"/>
<stop offset="1" stop-color="white" stop-opacity="0"/>
</radialGradient>
<radialGradient id="paint2_radial_56_60" cx="0" cy="0" r="1" gradientUnits="userSpaceOnUse" gradientTransform="translate(186.641 26.0001) rotate(25.6883) scale(162.639 850.318)">
<stop stop-color="white"/>
<stop offset="1" stop-color="white" stop-opacity="0"/>
</radialGradient>
</defs>
</svg>
