<svg width="525" height="121" viewBox="0 0 525 121" fill="none" xmlns="http://www.w3.org/2000/svg">
<path d="M6.98162 12.9815C7.81612 8.42713 8.18141 6.60683 9.17836 5.16524C10.0315 3.93155 11.3066 2.8689 12.6738 2.25204C14.27 1.5319 16.1937 1.5 20.9761 1.5H504.024C508.806 1.5 510.73 1.5319 512.326 2.25204C513.693 2.8689 514.968 3.93154 515.822 5.16524C516.819 6.60683 517.184 8.42716 518.018 12.9815C520.369 25.8105 523.5 45.6968 523.5 60.5C523.5 75.3032 520.369 95.1895 518.018 108.018C517.184 112.573 516.819 114.393 515.822 115.835C514.968 117.068 513.693 118.131 512.326 118.748C510.73 119.468 508.806 119.5 504.024 119.5H20.9761C16.1937 119.5 14.27 119.468 12.6738 118.748C11.3066 118.131 10.0315 117.068 9.17836 115.835C8.18141 114.393 7.81612 112.573 6.98162 108.018C4.63097 95.1895 1.5 75.3032 1.5 60.5C1.5 45.6968 4.63097 25.8105 6.98162 12.9815Z" fill="url(#paint0_linear_98_58)"/>
<path d="M6.98162 12.9815C7.81612 8.42713 8.18141 6.60683 9.17836 5.16524C10.0315 3.93155 11.3066 2.8689 12.6738 2.25204C14.27 1.5319 16.1937 1.5 20.9761 1.5H504.024C508.806 1.5 510.73 1.5319 512.326 2.25204C513.693 2.8689 514.968 3.93154 515.822 5.16524C516.819 6.60683 517.184 8.42716 518.018 12.9815C520.369 25.8105 523.5 45.6968 523.5 60.5C523.5 75.3032 520.369 95.1895 518.018 108.018C517.184 112.573 516.819 114.393 515.822 115.835C514.968 117.068 513.693 118.131 512.326 118.748C510.73 119.468 508.806 119.5 504.024 119.5H20.9761C16.1937 119.5 14.27 119.468 12.6738 118.748C11.3066 118.131 10.0315 117.068 9.17836 115.835C8.18141 114.393 7.81612 112.573 6.98162 108.018C4.63097 95.1895 1.5 75.3032 1.5 60.5C1.5 45.6968 4.63097 25.8105 6.98162 12.9815Z" fill="url(#paint1_radial_98_58)" fill-opacity="0.3"/>
<path d="M6.98162 12.9815C7.81612 8.42713 8.18141 6.60683 9.17836 5.16524C10.0315 3.93155 11.3066 2.8689 12.6738 2.25204C14.27 1.5319 16.1937 1.5 20.9761 1.5H504.024C508.806 1.5 510.73 1.5319 512.326 2.25204C513.693 2.8689 514.968 3.93154 515.822 5.16524C516.819 6.60683 517.184 8.42716 518.018 12.9815C520.369 25.8105 523.5 45.6968 523.5 60.5C523.5 75.3032 520.369 95.1895 518.018 108.018C517.184 112.573 516.819 114.393 515.822 115.835C514.968 117.068 513.693 118.131 512.326 118.748C510.73 119.468 508.806 119.5 504.024 119.5H20.9761C16.1937 119.5 14.27 119.468 12.6738 118.748C11.3066 118.131 10.0315 117.068 9.17836 115.835C8.18141 114.393 7.81612 112.573 6.98162 108.018C4.63097 95.1895 1.5 75.3032 1.5 60.5C1.5 45.6968 4.63097 25.8105 6.98162 12.9815Z" stroke="url(#paint2_radial_98_58)" stroke-width="3"/>
<defs>
<linearGradient id="paint0_linear_98_58" x1="262.5" y1="0" x2="262.5" y2="121" gradientUnits="userSpaceOnUse">
<stop stop-color="#DB9554"/>
<stop offset="1" stop-color="#D07D30"/>
</linearGradient>
<radialGradient id="paint1_radial_98_58" cx="0" cy="0" r="1" gradientUnits="userSpaceOnUse" gradientTransform="translate(262.5) rotate(90) scale(121 330.257)">
<stop stop-color="white"/>
<stop offset="1" stop-color="white" stop-opacity="0"/>
</radialGradient>
<radialGradient id="paint2_radial_98_58" cx="0" cy="0" r="1" gradientUnits="userSpaceOnUse" gradientTransform="translate(244.967 26.0001) rotate(20.1273) scale(204.878 885.952)">
<stop stop-color="white"/>
<stop offset="1" stop-color="white" stop-opacity="0"/>
</radialGradient>
</defs>
</svg>
