<svg width="326" height="121" viewBox="0 0 326 121" fill="none" xmlns="http://www.w3.org/2000/svg">
<path d="M4.77014 14.1138C5.04622 11.653 5.24442 9.89686 5.51596 8.51281C5.78289 7.15227 6.10258 6.25722 6.56865 5.50842C7.41016 4.15642 8.68859 3.0134 10.126 2.32787C10.9189 1.94973 11.855 1.73088 13.2671 1.61688C14.701 1.50113 16.5097 1.5 19.0394 1.5H306.961C309.49 1.5 311.299 1.50113 312.733 1.61688C314.145 1.73088 315.081 1.94973 315.874 2.32787L316.519 0.974867L315.874 2.32788C317.311 3.01339 318.59 4.15642 319.431 5.50843C319.897 6.25722 320.217 7.15226 320.484 8.51281C320.756 9.89686 320.954 11.653 321.23 14.1138C322.671 26.9635 324.5 46.1103 324.5 60.5C324.5 74.8897 322.671 94.0365 321.23 106.886C320.954 109.347 320.756 111.103 320.484 112.487C320.217 113.848 319.897 114.743 319.431 115.492C318.59 116.844 317.311 117.987 315.874 118.672C315.081 119.05 314.145 119.269 312.733 119.383C311.299 119.499 309.49 119.5 306.961 119.5H19.0394C16.5097 119.5 14.7009 119.499 13.2671 119.383C11.855 119.269 10.9189 119.05 10.126 118.672C8.68859 117.987 7.41016 116.844 6.56865 115.492C6.10258 114.743 5.78289 113.848 5.51596 112.487C5.24442 111.103 5.04622 109.347 4.77014 106.886C3.32854 94.0365 1.5 74.8897 1.5 60.5C1.5 46.1103 3.32854 26.9635 4.77014 14.1138Z" fill="url(#paint0_linear_20_103)"/>
<path d="M4.77014 14.1138C5.04622 11.653 5.24442 9.89686 5.51596 8.51281C5.78289 7.15227 6.10258 6.25722 6.56865 5.50842C7.41016 4.15642 8.68859 3.0134 10.126 2.32787C10.9189 1.94973 11.855 1.73088 13.2671 1.61688C14.701 1.50113 16.5097 1.5 19.0394 1.5H306.961C309.49 1.5 311.299 1.50113 312.733 1.61688C314.145 1.73088 315.081 1.94973 315.874 2.32787L316.519 0.974867L315.874 2.32788C317.311 3.01339 318.59 4.15642 319.431 5.50843C319.897 6.25722 320.217 7.15226 320.484 8.51281C320.756 9.89686 320.954 11.653 321.23 14.1138C322.671 26.9635 324.5 46.1103 324.5 60.5C324.5 74.8897 322.671 94.0365 321.23 106.886C320.954 109.347 320.756 111.103 320.484 112.487C320.217 113.848 319.897 114.743 319.431 115.492C318.59 116.844 317.311 117.987 315.874 118.672C315.081 119.05 314.145 119.269 312.733 119.383C311.299 119.499 309.49 119.5 306.961 119.5H19.0394C16.5097 119.5 14.7009 119.499 13.2671 119.383C11.855 119.269 10.9189 119.05 10.126 118.672C8.68859 117.987 7.41016 116.844 6.56865 115.492C6.10258 114.743 5.78289 113.848 5.51596 112.487C5.24442 111.103 5.04622 109.347 4.77014 106.886C3.32854 94.0365 1.5 74.8897 1.5 60.5C1.5 46.1103 3.32854 26.9635 4.77014 14.1138Z" fill="url(#paint1_radial_20_103)" fill-opacity="0.3"/>
<path d="M4.77014 14.1138C5.04622 11.653 5.24442 9.89686 5.51596 8.51281C5.78289 7.15227 6.10258 6.25722 6.56865 5.50842C7.41016 4.15642 8.68859 3.0134 10.126 2.32787C10.9189 1.94973 11.855 1.73088 13.2671 1.61688C14.701 1.50113 16.5097 1.5 19.0394 1.5H306.961C309.49 1.5 311.299 1.50113 312.733 1.61688C314.145 1.73088 315.081 1.94973 315.874 2.32787L316.519 0.974867L315.874 2.32788C317.311 3.01339 318.59 4.15642 319.431 5.50843C319.897 6.25722 320.217 7.15226 320.484 8.51281C320.756 9.89686 320.954 11.653 321.23 14.1138C322.671 26.9635 324.5 46.1103 324.5 60.5C324.5 74.8897 322.671 94.0365 321.23 106.886C320.954 109.347 320.756 111.103 320.484 112.487C320.217 113.848 319.897 114.743 319.431 115.492C318.59 116.844 317.311 117.987 315.874 118.672C315.081 119.05 314.145 119.269 312.733 119.383C311.299 119.499 309.49 119.5 306.961 119.5H19.0394C16.5097 119.5 14.7009 119.499 13.2671 119.383C11.855 119.269 10.9189 119.05 10.126 118.672C8.68859 117.987 7.41016 116.844 6.56865 115.492C6.10258 114.743 5.78289 113.848 5.51596 112.487C5.24442 111.103 5.04622 109.347 4.77014 106.886C3.32854 94.0365 1.5 74.8897 1.5 60.5C1.5 46.1103 3.32854 26.9635 4.77014 14.1138Z" stroke="url(#paint2_radial_20_103)" stroke-width="3"/>
<defs>
<linearGradient id="paint0_linear_20_103" x1="163" y1="0" x2="163" y2="121" gradientUnits="userSpaceOnUse">
<stop stop-color="#DB9554"/>
<stop offset="1" stop-color="#D07D30"/>
</linearGradient>
<radialGradient id="paint1_radial_20_103" cx="0" cy="0" r="1" gradientUnits="userSpaceOnUse" gradientTransform="translate(163) rotate(90) scale(121 205.074)">
<stop stop-color="white"/>
<stop offset="1" stop-color="white" stop-opacity="0"/>
</radialGradient>
<radialGradient id="paint2_radial_20_103" cx="0" cy="0" r="1" gradientUnits="userSpaceOnUse" gradientTransform="translate(152.113 26.0001) rotate(30.5492) scale(138.703 812.6)">
<stop stop-color="white"/>
<stop offset="1" stop-color="white" stop-opacity="0"/>
</radialGradient>
</defs>
</svg>
