<svg width="12" height="20" viewBox="0 0 12 20" fill="none" xmlns="http://www.w3.org/2000/svg">
<path d="M10.6703 11.8147L3.44277 19.3434C2.19514 20.6431 -1.32915e-07 19.7599 -2.08459e-07 17.9584L-8.39858e-07 2.90096C-9.15402e-07 1.09941 2.19514 0.216278 3.44277 1.5159L10.6703 9.04461C11.4133 9.81853 11.4133 11.0408 10.6703 11.8147Z" fill="#262626"/>
<path d="M10.6703 11.8147L3.44277 19.3434C2.19514 20.6431 -1.32915e-07 19.7599 -2.08459e-07 17.9584L-8.39858e-07 2.90096C-9.15402e-07 1.09941 2.19514 0.216278 3.44277 1.5159L10.6703 9.04461C11.4133 9.81853 11.4133 11.0408 10.6703 11.8147Z" fill="url(#paint0_linear_98_121)"/>
<defs>
<linearGradient id="paint0_linear_98_121" x1="-5.24159e-07" y1="10.4297" x2="12" y2="10.4297" gradientUnits="userSpaceOnUse">
<stop stop-color="#DB9554"/>
<stop offset="1" stop-color="#D07D30"/>
</linearGradient>
</defs>
</svg>
