<svg width="28" height="28" viewBox="0 0 28 28" fill="none" xmlns="http://www.w3.org/2000/svg">
<path d="M8.47801 13.2761C10.1735 11.5933 13.1305 11.5933 14.826 13.2761L15.884 14.3262L18 12.226L16.942 11.1759C15.5308 9.77383 13.6513 9 11.652 9C9.65274 9 7.77318 9.77383 6.36201 11.1759L3.18652 14.3262C1.78627 15.7204 1 17.6087 1 19.5773C1 21.546 1.78627 23.4343 3.18652 24.8285C3.88069 25.5185 4.70538 26.0655 5.61321 26.4382C6.52104 26.8108 7.49411 27.0017 8.47651 27C9.45918 27.002 10.4326 26.8112 11.3407 26.4386C12.2488 26.0659 13.0737 25.5187 13.768 24.8285L14.826 23.7784L12.71 21.6783L11.652 22.7283C10.8087 23.5616 9.66721 24.0294 8.47726 24.0294C7.28732 24.0294 6.14582 23.5616 5.30252 22.7283C4.46226 21.8917 3.99043 20.7586 3.99043 19.5773C3.99043 18.3961 4.46226 17.263 5.30252 16.4263L8.47801 13.2761Z" fill="black"/>
<path d="M8.47801 13.2761C10.1735 11.5933 13.1305 11.5933 14.826 13.2761L15.884 14.3262L18 12.226L16.942 11.1759C15.5308 9.77383 13.6513 9 11.652 9C9.65274 9 7.77318 9.77383 6.36201 11.1759L3.18652 14.3262C1.78627 15.7204 1 17.6087 1 19.5773C1 21.546 1.78627 23.4343 3.18652 24.8285C3.88069 25.5185 4.70538 26.0655 5.61321 26.4382C6.52104 26.8108 7.49411 27.0017 8.47651 27C9.45918 27.002 10.4326 26.8112 11.3407 26.4386C12.2488 26.0659 13.0737 25.5187 13.768 24.8285L14.826 23.7784L12.71 21.6783L11.652 22.7283C10.8087 23.5616 9.66721 24.0294 8.47726 24.0294C7.28732 24.0294 6.14582 23.5616 5.30252 22.7283C4.46226 21.8917 3.99043 20.7586 3.99043 19.5773C3.99043 18.3961 4.46226 17.263 5.30252 16.4263L8.47801 13.2761Z" fill="#DB9554"/>
<path d="M13.232 4.1714L12.174 5.22149L14.29 7.32168L15.348 6.27158C16.1913 5.43833 17.3328 4.97053 18.5227 4.97053C19.7127 4.97053 20.8542 5.43833 21.6975 6.27158C22.5377 7.1082 23.0096 8.24131 23.0096 9.4226C23.0096 10.6039 22.5377 11.737 21.6975 12.5736L18.522 15.7239C16.8265 17.4067 13.8695 17.4067 12.174 15.7239L11.116 14.6738L9 16.774L10.058 17.8241C11.4692 19.2262 13.3487 20 15.348 20C17.3473 20 19.2268 19.2262 20.638 17.8241L23.8135 14.6738C25.2137 13.2795 26 11.3912 26 9.4226C26 7.45399 25.2137 5.56566 23.8135 4.1714C22.4091 2.7809 20.5064 2 18.5227 2C16.5391 2 14.6364 2.7809 13.232 4.1714Z" fill="black"/>
<path d="M13.232 4.1714L12.174 5.22149L14.29 7.32168L15.348 6.27158C16.1913 5.43833 17.3328 4.97053 18.5227 4.97053C19.7127 4.97053 20.8542 5.43833 21.6975 6.27158C22.5377 7.1082 23.0096 8.24131 23.0096 9.4226C23.0096 10.6039 22.5377 11.737 21.6975 12.5736L18.522 15.7239C16.8265 17.4067 13.8695 17.4067 12.174 15.7239L11.116 14.6738L9 16.774L10.058 17.8241C11.4692 19.2262 13.3487 20 15.348 20C17.3473 20 19.2268 19.2262 20.638 17.8241L23.8135 14.6738C25.2137 13.2795 26 11.3912 26 9.4226C26 7.45399 25.2137 5.56566 23.8135 4.1714C22.4091 2.7809 20.5064 2 18.5227 2C16.5391 2 14.6364 2.7809 13.232 4.1714Z" fill="#DB9554"/>
</svg>
