<svg width="109" height="42" viewBox="0 0 109 42" fill="none" xmlns="http://www.w3.org/2000/svg">
<path fill-rule="evenodd" clip-rule="evenodd" d="M47.7982 0.39923L56.3404 15.1946H45.9347L42.5869 9.3968L47.7982 0.39923Z" fill="#D86514"/>
<path fill-rule="evenodd" clip-rule="evenodd" d="M0.334473 34.6273H11.1247L30.8864 0.399197H20.2717L0.334473 34.6273Z" fill="#FFF200"/>
<path fill-rule="evenodd" clip-rule="evenodd" d="M12.9116 4.73809H18.3025V6.68462L13.0326 15.7318H12.9116V4.73809Z" fill="#FFF200"/>
<path d="M27.7338 31.9738C27.6652 31.3026 27.5393 30.7268 27.3563 30.2464C27.1809 29.7583 26.933 29.3579 26.6127 29.0452C26.2924 28.7325 25.8958 28.5037 25.423 28.3588C24.9578 28.2063 24.401 28.13 23.7528 28.13C23.1274 28.13 22.5135 28.2215 21.911 28.4046C21.3161 28.5876 20.7441 28.8088 20.195 29.0681V26.4713C20.8433 26.1815 21.503 25.9679 22.1741 25.8306C22.8529 25.6934 23.5278 25.6247 24.1989 25.6247C25.3048 25.6247 26.2733 25.7773 27.1046 26.0823C27.9435 26.3798 28.6414 26.8412 29.1981 27.4665C29.7548 28.0919 30.1743 28.8889 30.4565 29.8574C30.7386 30.8184 30.8797 31.9623 30.8797 33.2893C30.8797 34.5553 30.7348 35.6841 30.445 36.6755C30.1628 37.6593 29.7205 38.4868 29.118 39.1579C28.5155 39.8214 27.7643 40.3095 26.8644 40.6222C25.9721 40.9349 24.9654 41.0912 23.8443 41.0912C23.5164 41.0912 23.1999 41.0798 22.8948 41.0569C22.5974 41.034 22.2961 40.9959 21.9911 40.9425C21.6936 40.8968 21.3886 40.8319 21.0759 40.748C20.7632 40.6642 20.4276 40.565 20.0692 40.4506V37.6936C20.7861 38.0216 21.461 38.2427 22.094 38.3571C22.7347 38.4715 23.3715 38.5287 24.0045 38.5287C24.5993 38.5287 25.1332 38.441 25.606 38.2656C26.0865 38.0902 26.4907 37.8119 26.8186 37.4305C27.1466 37.0492 27.3868 36.5916 27.5393 36.0578C27.6919 35.5239 27.7719 34.9367 27.7796 34.296H20.9157V31.9738H27.7338ZM40.7637 40.8281V34.3189H35.6844V40.8281H32.8702V25.8764H35.6844V31.8823H40.7637V25.8764H43.5778V40.8281H40.7637ZM46.7695 40.8281V25.8764H55.7726V28.2559H49.6294V31.9738H55.4866V34.296H49.6294V38.4487H55.7726V40.8281H46.7695ZM69.4659 30.6353C69.4659 31.4132 69.3363 32.1339 69.077 32.7974C68.8177 33.4533 68.4325 34.0215 67.9216 34.502C67.4106 34.9824 66.7738 35.3561 66.0111 35.6231C65.2485 35.89 64.3638 36.0234 63.3571 36.0234H61.9271V40.8281H59.0901V25.8764H63.4715C64.4401 25.8764 65.2942 25.9832 66.034 26.1967C66.7814 26.4026 67.4068 26.7077 67.9101 27.1119C68.4211 27.5161 68.8062 28.0156 69.0655 28.6105C69.3325 29.1977 69.4659 29.8727 69.4659 30.6353ZM66.5145 30.8298C66.5145 30.4332 66.4497 30.0748 66.32 29.7545C66.198 29.4265 66.0073 29.1482 65.748 28.9194C65.4963 28.6906 65.176 28.5152 64.7871 28.3931C64.3981 28.2711 63.9367 28.2101 63.4029 28.2101H61.9271V33.6897H63.4944C63.9825 33.6897 64.4134 33.6249 64.7871 33.4953C65.1608 33.358 65.4735 33.1635 65.7251 32.9118C65.9844 32.6602 66.1789 32.3589 66.3086 32.0081C66.4458 31.6573 66.5145 31.2645 66.5145 30.8298ZM81.8551 28.3359H75.4832V40.8281H72.6805V25.8764H81.8551V28.3359ZM92.2882 40.8281V31.2645H92.2653L87.0945 40.8281H84.3719V25.8764H87.2089V35.44H87.2318L92.414 25.8764H95.1252V40.8281H92.2882ZM98.2368 36.8013C98.5419 35.9243 98.8965 35.2913 99.3007 34.9023C99.7126 34.5058 100.102 34.2732 100.468 34.2045C100.102 34.0901 99.7583 33.9376 99.438 33.7469C99.1177 33.5486 98.8355 33.3046 98.5915 33.0148C98.3474 32.725 98.1529 32.3856 98.008 31.9967C97.8708 31.6077 97.8021 31.1539 97.8021 30.6353C97.8021 29.7888 97.928 29.0643 98.1796 28.4618C98.4313 27.8593 98.8012 27.3674 99.2893 26.9861C99.785 26.5971 100.395 26.3149 101.12 26.1395C101.844 25.9641 102.683 25.8764 103.636 25.8764H107.697V40.8281H104.883V35.1083H103.591C102.988 35.1083 102.496 35.257 102.115 35.5544C101.734 35.8442 101.425 36.3933 101.188 37.2017L100.102 40.8281H96.8984L98.2368 36.8013ZM100.754 30.5667C100.754 30.948 100.818 31.2988 100.948 31.6191C101.085 31.9395 101.28 32.1873 101.531 32.3627C101.791 32.5381 102.096 32.6716 102.447 32.7631C102.805 32.8546 103.202 32.9004 103.636 32.9004H104.883V28.2215H103.545C102.576 28.2215 101.867 28.4084 101.417 28.7821C100.975 29.1558 100.754 29.7507 100.754 30.5667Z" fill="#FFF200"/>
<path fill-rule="evenodd" clip-rule="evenodd" d="M30.763 0.39923L39.3053 15.1946H28.8995L25.5518 9.3968L30.763 0.39923Z" fill="#D86514"/>
<path fill-rule="evenodd" clip-rule="evenodd" d="M23.7588 23.3468H34.5496L47.798 0.399204H37.1831L23.7588 23.3468Z" fill="#FFF200"/>
<path d="M64.8201 16.439H64.3383L64.2663 14.1822L64.2358 13.3155L64.0669 13.8195L63.5325 15.2594H63.1919L62.6824 13.8749L62.5135 13.3155L62.5024 14.221L62.4388 16.439H61.9736L62.1508 12.8199H62.735L63.2224 14.1822L63.3802 14.6419L63.5325 14.1822L64.0448 12.8199H64.6456L64.8201 16.439ZM67.7691 16.439H67.2762V14.7776H65.756V16.439H65.2631V12.8199H65.756V14.3511H67.2762V12.8199H67.7691V16.439ZM71.0392 14.6059C71.0392 14.9308 71.0005 15.2114 70.9229 15.4477C70.8473 15.684 70.7439 15.8796 70.6128 16.0347C70.4836 16.1879 70.3313 16.3024 70.1559 16.378C69.9824 16.4519 69.7987 16.4888 69.6049 16.4888C69.3723 16.4888 69.1692 16.4473 68.9957 16.3642C68.824 16.2793 68.681 16.1575 68.5665 15.9987C68.4539 15.8399 68.3699 15.647 68.3146 15.42C68.2592 15.1911 68.2315 14.9336 68.2315 14.6474C68.2315 14.3262 68.2693 14.0475 68.345 13.8112C68.4207 13.5749 68.5231 13.3802 68.6524 13.2269C68.7834 13.0719 68.9357 12.9574 69.1093 12.8836C69.2828 12.8079 69.4665 12.7701 69.6603 12.7701C69.8929 12.7701 70.095 12.8125 70.2667 12.8974C70.4402 12.9823 70.5842 13.1042 70.6986 13.2629C70.8131 13.4198 70.898 13.6118 70.9534 13.8389C71.0106 14.0659 71.0392 14.3216 71.0392 14.6059ZM70.527 14.6419C70.527 14.4296 70.5104 14.2358 70.4771 14.0604C70.4457 13.8832 70.3941 13.7309 70.3221 13.6035C70.2501 13.4761 70.1569 13.3774 70.0424 13.3072C69.9298 13.2371 69.7932 13.202 69.6326 13.202C69.4775 13.202 69.3437 13.2399 69.2311 13.3155C69.1203 13.3894 69.029 13.4909 68.957 13.6201C68.885 13.7475 68.8314 13.898 68.7964 14.0715C68.7613 14.2432 68.7437 14.4259 68.7437 14.6197C68.7437 14.8339 68.7604 15.0296 68.7936 15.2068C68.8268 15.3821 68.8785 15.5335 68.9486 15.6609C69.0206 15.7864 69.1129 15.8842 69.2255 15.9544C69.3382 16.0245 69.4738 16.0596 69.6326 16.0596C69.7877 16.0596 69.9215 16.0227 70.0341 15.9489C70.1467 15.8732 70.239 15.7716 70.311 15.6443C70.3848 15.515 70.4393 15.3646 70.4744 15.1929C70.5094 15.0212 70.527 14.8376 70.527 14.6419ZM72.3379 13.2519V16.439H71.8367V12.8199H73.919V13.2519H72.3379ZM77.275 14.6059C77.275 14.9308 77.2362 15.2114 77.1587 15.4477C77.083 15.684 76.9796 15.8796 76.8486 16.0347C76.7194 16.1879 76.5671 16.3024 76.3917 16.378C76.2182 16.4519 76.0345 16.4888 75.8407 16.4888C75.6081 16.4888 75.405 16.4473 75.2315 16.3642C75.0598 16.2793 74.9167 16.1575 74.8023 15.9987C74.6897 15.8399 74.6057 15.647 74.5503 15.42C74.4949 15.1911 74.4672 14.9336 74.4672 14.6474C74.4672 14.3262 74.5051 14.0475 74.5808 13.8112C74.6565 13.5749 74.7589 13.3802 74.8881 13.2269C75.0192 13.0719 75.1715 12.9574 75.345 12.8836C75.5185 12.8079 75.7022 12.7701 75.896 12.7701C76.1286 12.7701 76.3308 12.8125 76.5024 12.8974C76.676 12.9823 76.82 13.1042 76.9344 13.2629C77.0489 13.4198 77.1338 13.6118 77.1892 13.8389C77.2464 14.0659 77.275 14.3216 77.275 14.6059ZM76.7627 14.6419C76.7627 14.4296 76.7461 14.2358 76.7129 14.0604C76.6815 13.8832 76.6298 13.7309 76.5578 13.6035C76.4858 13.4761 76.3926 13.3774 76.2782 13.3072C76.1656 13.2371 76.029 13.202 75.8683 13.202C75.7133 13.202 75.5795 13.2399 75.4668 13.3155C75.3561 13.3894 75.2647 13.4909 75.1927 13.6201C75.1207 13.7475 75.0672 13.898 75.0321 14.0715C74.997 14.2432 74.9795 14.4259 74.9795 14.6197C74.9795 14.8339 74.9961 15.0296 75.0293 15.2068C75.0626 15.3821 75.1143 15.5335 75.1844 15.6609C75.2564 15.7864 75.3487 15.8842 75.4613 15.9544C75.5739 16.0245 75.7096 16.0596 75.8683 16.0596C76.0234 16.0596 76.1572 16.0227 76.2699 15.9489C76.3825 15.8732 76.4748 15.7716 76.5468 15.6443C76.6206 15.515 76.675 15.3646 76.7101 15.1929C76.7452 15.0212 76.7627 14.8376 76.7627 14.6419ZM80.2212 16.439H79.7283V13.2574H78.2441V16.439H77.7513V12.8199H80.2212V16.439ZM83.3585 13.9275C83.3585 14.0752 83.3308 14.2219 83.2754 14.3678C83.22 14.5117 83.1342 14.641 83.0179 14.7554C82.9016 14.8699 82.753 14.9631 82.5721 15.0351C82.3912 15.1052 82.1752 15.1403 81.9241 15.1403H81.4755V16.439H80.9827V12.8199H82.0017C82.1807 12.8199 82.3524 12.8402 82.5167 12.8808C82.681 12.9196 82.825 12.9833 82.9486 13.0719C83.0742 13.1605 83.1739 13.2749 83.2477 13.4152C83.3215 13.5555 83.3585 13.7263 83.3585 13.9275ZM82.8462 13.9496C82.8462 13.7171 82.7696 13.5389 82.6164 13.4152C82.465 13.2915 82.2527 13.2297 81.9795 13.2297H81.4755V14.7194H81.9352C82.2269 14.7194 82.4512 14.6557 82.6081 14.5284C82.7668 14.401 82.8462 14.2081 82.8462 13.9496ZM86.6286 14.6059C86.6286 14.9308 86.5899 15.2114 86.5123 15.4477C86.4367 15.684 86.3333 15.8796 86.2022 16.0347C86.073 16.1879 85.9207 16.3024 85.7453 16.378C85.5718 16.4519 85.3881 16.4888 85.1943 16.4888C84.9617 16.4888 84.7586 16.4473 84.5851 16.3642C84.4134 16.2793 84.2704 16.1575 84.1559 15.9987C84.0433 15.8399 83.9593 15.647 83.9039 15.42C83.8486 15.1911 83.8209 14.9336 83.8209 14.6474C83.8209 14.3262 83.8587 14.0475 83.9344 13.8112C84.0101 13.5749 84.1125 13.3802 84.2418 13.2269C84.3728 13.0719 84.5251 12.9574 84.6986 12.8836C84.8722 12.8079 85.0558 12.7701 85.2497 12.7701C85.4823 12.7701 85.6844 12.8125 85.8561 12.8974C86.0296 12.9823 86.1736 13.1042 86.288 13.2629C86.4025 13.4198 86.4874 13.6118 86.5428 13.8389C86.6 14.0659 86.6286 14.3216 86.6286 14.6059ZM86.1164 14.6419C86.1164 14.4296 86.0998 14.2358 86.0665 14.0604C86.0351 13.8832 85.9835 13.7309 85.9115 13.6035C85.8395 13.4761 85.7462 13.3774 85.6318 13.3072C85.5192 13.2371 85.3826 13.202 85.222 13.202C85.0669 13.202 84.9331 13.2399 84.8205 13.3155C84.7097 13.3894 84.6183 13.4909 84.5464 13.6201C84.4744 13.7475 84.4208 13.898 84.3858 14.0715C84.3507 14.2432 84.3331 14.4259 84.3331 14.6197C84.3331 14.8339 84.3498 15.0296 84.383 15.2068C84.4162 15.3821 84.4679 15.5335 84.538 15.6609C84.61 15.7864 84.7023 15.8842 84.8149 15.9544C84.9276 16.0245 85.0632 16.0596 85.222 16.0596C85.3771 16.0596 85.5109 16.0227 85.6235 15.9489C85.7361 15.8732 85.8284 15.7716 85.9004 15.6443C85.9742 15.515 86.0287 15.3646 86.0638 15.1929C86.0988 15.0212 86.1164 14.8376 86.1164 14.6419ZM88.5669 16.4888H88.1128V16.1261C87.9319 16.1131 87.7667 16.0781 87.6172 16.0208C87.4695 15.9618 87.3412 15.875 87.2323 15.7606C87.1252 15.6443 87.0421 15.4957 86.9831 15.3148C86.924 15.132 86.8945 14.9096 86.8945 14.6474C86.8945 14.3835 86.9258 14.161 86.9886 13.9801C87.0532 13.7974 87.1409 13.6478 87.2517 13.5315C87.3624 13.4134 87.4916 13.3239 87.6393 13.2629C87.787 13.202 87.9448 13.1605 88.1128 13.1383V12.7701H88.5669V13.1383C88.7608 13.1531 88.9334 13.1946 89.0847 13.2629C89.2361 13.3294 89.3635 13.4235 89.4668 13.5454C89.5721 13.6654 89.6524 13.814 89.7077 13.9912C89.7631 14.1684 89.7908 14.3733 89.7908 14.6059C89.7908 14.8699 89.7567 15.0942 89.6884 15.2788C89.6201 15.4615 89.5287 15.6129 89.4142 15.7329C89.3016 15.851 89.1715 15.9415 89.0238 16.0042C88.878 16.0652 88.7257 16.1058 88.5669 16.1261V16.4888ZM88.1128 13.5537C87.9836 13.5684 87.8728 13.6035 87.7805 13.6589C87.6882 13.7124 87.6116 13.7844 87.5507 13.8749C87.4916 13.9653 87.4473 14.0733 87.4178 14.1989C87.3901 14.3225 87.3763 14.4628 87.3763 14.6197C87.3763 14.808 87.392 14.9686 87.4233 15.1015C87.4566 15.2326 87.5046 15.3415 87.5673 15.4283C87.6301 15.5132 87.7067 15.5787 87.7971 15.6249C87.8894 15.6692 87.9947 15.6978 88.1128 15.7107V13.5537ZM88.5669 15.7107C88.6943 15.6941 88.8041 15.6581 88.8964 15.6027C88.9906 15.5474 89.0681 15.4726 89.129 15.3784C89.1899 15.2843 89.2352 15.1772 89.2647 15.0572C89.2942 14.9373 89.309 14.7988 89.309 14.6419C89.309 14.4831 89.2952 14.3428 89.2675 14.221C89.2398 14.0973 89.1955 13.9875 89.1346 13.8915C89.0755 13.7955 88.998 13.7189 88.902 13.6617C88.8078 13.6044 88.6961 13.5684 88.5669 13.5537V15.7107ZM90.7212 12.8199V15.5557L92.2192 12.8199H92.6872V16.439H92.1943V13.706L90.699 16.439H90.2283V12.8199H90.7212ZM95.6998 16.439H95.207V13.2463H94.4067C94.3901 13.7171 94.3633 14.1269 94.3264 14.4758C94.2913 14.8246 94.2461 15.1218 94.1907 15.3674C94.1354 15.611 94.0735 15.803 94.0052 15.9433C93.9369 16.0836 93.8668 16.1888 93.7948 16.259C93.7246 16.3291 93.6526 16.379 93.5788 16.4085C93.505 16.4362 93.4219 16.45 93.3296 16.45C93.2539 16.45 93.1745 16.4408 93.0915 16.4224L93.1136 16.0015C93.2151 16.0144 93.3037 15.9876 93.3794 15.9212C93.457 15.8547 93.5243 15.7559 93.5816 15.6249C93.6388 15.492 93.6868 15.3295 93.7255 15.1375C93.7643 14.9456 93.7975 14.7305 93.8252 14.4924C93.8529 14.2524 93.876 13.9921 93.8945 13.7115C93.9148 13.4291 93.9323 13.1319 93.9471 12.8199H95.6998V16.439ZM97.0649 14.2487H97.6492C97.8763 14.2487 98.0738 14.2764 98.2418 14.3318C98.4116 14.3853 98.5528 14.4591 98.6654 14.5533C98.778 14.6474 98.862 14.7582 98.9174 14.8856C98.9746 15.0129 99.0032 15.1505 99.0032 15.2981C99.0032 15.479 98.97 15.6406 98.9036 15.7827C98.8389 15.923 98.7457 16.0421 98.6239 16.1399C98.5021 16.2359 98.3544 16.3097 98.1808 16.3614C98.0073 16.4131 97.8126 16.439 97.5966 16.439H96.5721V12.8199H97.0649V14.2487ZM98.4771 15.3341C98.4771 15.2289 98.4624 15.1348 98.4328 15.0517C98.4033 14.9686 98.3544 14.8985 98.2861 14.8413C98.2178 14.7822 98.1292 14.737 98.0202 14.7056C97.9113 14.6742 97.7766 14.6585 97.616 14.6585H97.0649V16.0236H97.6326C97.9224 16.0236 98.1356 15.9636 98.2722 15.8436C98.4088 15.7218 98.4771 15.552 98.4771 15.3341ZM102.066 16.439H101.573V14.7776H100.053V16.439H99.5598V12.8199H100.053V14.3511H101.573V12.8199H102.066V16.439ZM105.461 16.439H104.923L104.671 15.6498H103.165L102.91 16.439H102.398L103.6 12.8199H104.275L105.461 16.439ZM104.53 15.2095L103.918 13.274L103.306 15.2095H104.53ZM106.147 15.3618C106.186 15.2603 106.225 15.18 106.264 15.1209C106.304 15.0619 106.345 15.012 106.385 14.9714C106.426 14.9308 106.468 14.8985 106.51 14.8745C106.554 14.8486 106.596 14.8293 106.635 14.8163C106.527 14.796 106.432 14.7582 106.347 14.7028C106.262 14.6474 106.191 14.5791 106.133 14.4979C106.078 14.4167 106.036 14.3253 106.006 14.2238C105.978 14.1204 105.964 14.0143 105.964 13.9053C105.964 13.7466 105.988 13.6017 106.034 13.4706C106.082 13.3377 106.156 13.2232 106.255 13.1273C106.357 13.0313 106.487 12.9565 106.646 12.903C106.806 12.8476 107.003 12.8199 107.235 12.8199H108.135V16.439H107.637V14.9409H107.263C107.191 14.9409 107.125 14.9474 107.064 14.9603C107.005 14.9732 106.95 14.9972 106.9 15.0323C106.852 15.0655 106.808 15.1117 106.767 15.1708C106.729 15.2298 106.694 15.3046 106.662 15.3951L106.3 16.439H105.748L106.147 15.3618ZM106.482 13.8749C106.482 13.9875 106.498 14.0844 106.529 14.1656C106.561 14.2468 106.607 14.3161 106.668 14.3733C106.729 14.4305 106.804 14.4739 106.895 14.5034C106.987 14.5311 107.093 14.545 107.213 14.545H107.637V13.2352H107.194C106.958 13.2352 106.779 13.2906 106.659 13.4014C106.541 13.5121 106.482 13.67 106.482 13.8749Z" fill="white"/>
<path d="M45.886 22.683C45.5962 22.803 45.2925 22.863 44.975 22.863C44.4637 22.863 44.0705 22.7107 43.7954 22.4061C43.5222 22.0997 43.3856 21.6474 43.3856 21.0493C43.3856 20.7595 43.4234 20.4974 43.4991 20.263C43.5748 20.0285 43.6828 19.8301 43.8231 19.6676C43.9634 19.5033 44.1332 19.3769 44.3326 19.2883C44.532 19.1997 44.7553 19.1554 45.0027 19.1554C45.1707 19.1554 45.3267 19.1701 45.4707 19.1997C45.6146 19.2273 45.7531 19.2707 45.886 19.3298V19.8144C45.7549 19.7424 45.6193 19.6879 45.479 19.651C45.3387 19.6122 45.1854 19.5929 45.0193 19.5929C44.8495 19.5929 44.6953 19.6252 44.5569 19.6898C44.4203 19.7525 44.304 19.8448 44.208 19.9667C44.112 20.0867 44.0382 20.2343 43.9865 20.4097C43.9348 20.5832 43.9089 20.7817 43.9089 21.005C43.9089 21.4739 44.004 21.8274 44.1942 22.0656C44.3843 22.3037 44.663 22.4228 45.0304 22.4228C45.1854 22.4228 45.3341 22.4052 45.4762 22.3701C45.6183 22.3332 45.7549 22.2825 45.886 22.2179V22.683ZM49.1285 19.6205H48.0569V22.8187H47.5585V19.6205H46.4869V19.1997H49.1285V19.6205ZM52.1799 20.3073C52.1799 20.4549 52.1522 20.6017 52.0968 20.7475C52.0415 20.8915 51.9556 21.0207 51.8393 21.1352C51.723 21.2496 51.5744 21.3429 51.3935 21.4148C51.2126 21.485 50.9966 21.5201 50.7456 21.5201H50.297V22.8187H49.8041V19.1997H50.8231C51.0022 19.1997 51.1738 19.22 51.3381 19.2606C51.5024 19.2993 51.6464 19.363 51.7701 19.4516C51.8956 19.5402 51.9953 19.6547 52.0692 19.795C52.143 19.9353 52.1799 20.106 52.1799 20.3073ZM51.6676 20.3294C51.6676 20.0968 51.591 19.9187 51.4378 19.795C51.2864 19.6713 51.0742 19.6095 50.801 19.6095H50.297V21.0992H50.7567C51.0483 21.0992 51.2726 21.0355 51.4295 20.9081C51.5883 20.7808 51.6676 20.5878 51.6676 20.3294ZM55.4501 20.9857C55.4501 21.3106 55.4113 21.5911 55.3338 21.8274C55.2581 22.0637 55.1547 22.2594 55.0237 22.4145C54.8944 22.5677 54.7421 22.6821 54.5668 22.7578C54.3933 22.8316 54.2096 22.8686 54.0157 22.8686C53.7832 22.8686 53.5801 22.827 53.4066 22.744C53.2349 22.659 53.0918 22.5372 52.9774 22.3785C52.8648 22.2197 52.7808 22.0268 52.7254 21.7997C52.67 21.5708 52.6423 21.3133 52.6423 21.0272C52.6423 20.706 52.6802 20.4272 52.7559 20.191C52.8315 19.9547 52.934 19.7599 53.0632 19.6067C53.1943 19.4516 53.3466 19.3372 53.5201 19.2633C53.6936 19.1877 53.8773 19.1498 54.0711 19.1498C54.3037 19.1498 54.5059 19.1923 54.6775 19.2772C54.8511 19.3621 54.995 19.4839 55.1095 19.6427C55.2239 19.7996 55.3089 19.9916 55.3642 20.2186C55.4215 20.4457 55.4501 20.7014 55.4501 20.9857ZM54.9378 21.0217C54.9378 20.8094 54.9212 20.6155 54.888 20.4402C54.8566 20.263 54.8049 20.1107 54.7329 19.9833C54.6609 19.8559 54.5677 19.7571 54.4532 19.687C54.3406 19.6169 54.204 19.5818 54.0434 19.5818C53.8884 19.5818 53.7545 19.6196 53.6419 19.6953C53.5312 19.7691 53.4398 19.8707 53.3678 19.9999C53.2958 20.1273 53.2423 20.2777 53.2072 20.4512C53.1721 20.6229 53.1546 20.8057 53.1546 20.9995C53.1546 21.2136 53.1712 21.4093 53.2044 21.5865C53.2377 21.7619 53.2894 21.9133 53.3595 22.0406C53.4315 22.1662 53.5238 22.264 53.6364 22.3342C53.749 22.4043 53.8847 22.4394 54.0434 22.4394C54.1985 22.4394 54.3323 22.4025 54.4449 22.3286C54.5575 22.2529 54.6498 22.1514 54.7218 22.024C54.7957 21.8948 54.8501 21.7444 54.8852 21.5727C54.9203 21.401 54.9378 21.2173 54.9378 21.0217ZM56.4248 19.1997V21.9354L57.9228 19.1997H58.3907V22.8187H57.8979V20.0857L56.4026 22.8187H55.9319V19.1997H56.4248ZM61.6 19.6205H60.5284V22.8187H60.03V19.6205H58.9584V19.1997H61.6V19.6205ZM64.4521 22.8187H62.3947V19.1997H64.4521V19.615H62.8876V20.7364H64.3911V21.1518H62.8876V22.3978H64.4521V22.8187ZM67.6392 22.8187H67.1463V19.6261H66.346C66.3294 20.0968 66.3027 20.5066 66.2657 20.8555C66.2307 21.2044 66.1854 21.5016 66.1301 21.7471C66.0747 21.9908 66.0128 22.1828 65.9445 22.3231C65.8762 22.4634 65.8061 22.5686 65.7341 22.6387C65.664 22.7089 65.592 22.7587 65.5181 22.7883C65.4443 22.816 65.3612 22.8298 65.2689 22.8298C65.1932 22.8298 65.1138 22.8206 65.0308 22.8021L65.0529 22.3812C65.1545 22.3941 65.2431 22.3674 65.3188 22.3009C65.3963 22.2345 65.4637 22.1357 65.5209 22.0046C65.5781 21.8717 65.6261 21.7093 65.6649 21.5173C65.7036 21.3253 65.7369 21.1103 65.7646 20.8721C65.7923 20.6321 65.8153 20.3719 65.8338 20.0913C65.8541 19.8088 65.8716 19.5116 65.8864 19.1997H67.6392V22.8187ZM69.0043 20.6285H69.5885C69.8156 20.6285 70.0131 20.6561 70.1811 20.7115C70.3509 20.7651 70.4921 20.8389 70.6048 20.933C70.7174 21.0272 70.8013 21.138 70.8567 21.2653C70.914 21.3927 70.9426 21.5302 70.9426 21.6779C70.9426 21.8588 70.9093 22.0203 70.8429 22.1625C70.7783 22.3028 70.6851 22.4218 70.5632 22.5197C70.4414 22.6157 70.2937 22.6895 70.1202 22.7412C69.9467 22.7929 69.7519 22.8187 69.5359 22.8187H68.5114V19.1997H69.0043V20.6285ZM70.4165 21.7139C70.4165 21.6087 70.4017 21.5145 70.3722 21.4315C70.3426 21.3484 70.2937 21.2782 70.2254 21.221C70.1571 21.1619 70.0685 21.1167 69.9596 21.0853C69.8507 21.054 69.7159 21.0383 69.5553 21.0383H69.0043V22.4034H69.5719C69.8617 22.4034 70.075 22.3434 70.2116 22.2234C70.3482 22.1016 70.4165 21.9317 70.4165 21.7139ZM74.0051 22.8187H73.5122V21.1573H71.992V22.8187H71.4991V19.1997H71.992V20.7309H73.5122V19.1997H74.0051V22.8187ZM77.3998 22.8187H76.8627L76.6107 22.0296H75.1044L74.8496 22.8187H74.3373L75.5391 19.1997H76.2147L77.3998 22.8187ZM76.4695 21.5893L75.8575 19.6538L75.2456 21.5893H76.4695ZM78.0866 21.7416C78.1253 21.6401 78.1641 21.5598 78.2029 21.5007C78.2435 21.4416 78.2841 21.3918 78.3247 21.3512C78.3653 21.3106 78.4068 21.2782 78.4493 21.2542C78.4936 21.2284 78.5351 21.209 78.5739 21.1961C78.4668 21.1758 78.3708 21.138 78.2859 21.0826C78.201 21.0272 78.1299 20.9589 78.0727 20.8777C78.0173 20.7964 77.9749 20.7051 77.9453 20.6035C77.9176 20.5002 77.9038 20.394 77.9038 20.2851C77.9038 20.1263 77.9269 19.9814 77.973 19.8504C78.021 19.7175 78.0949 19.603 78.1945 19.507C78.2961 19.411 78.4262 19.3363 78.585 19.2827C78.7456 19.2273 78.9422 19.1997 79.1748 19.1997H80.0747V22.8187H79.5763V21.3207H79.2025C79.1305 21.3207 79.064 21.3272 79.0031 21.3401C78.944 21.353 78.8896 21.377 78.8397 21.4121C78.7917 21.4453 78.7474 21.4915 78.7068 21.5505C78.668 21.6096 78.633 21.6844 78.6016 21.7748L78.2388 22.8187H77.6878L78.0866 21.7416ZM78.4216 20.2546C78.4216 20.3672 78.4373 20.4642 78.4687 20.5454C78.5001 20.6266 78.5462 20.6958 78.6071 20.7531C78.668 20.8103 78.7437 20.8537 78.8342 20.8832C78.9265 20.9109 79.0326 20.9247 79.1526 20.9247H79.5763V19.615H79.1332C78.8969 19.615 78.7188 19.6704 78.5988 19.7811C78.4807 19.8919 78.4216 20.0497 78.4216 20.2546ZM86.5624 22.8187H85.9422L84.5881 21.0438V22.8187H84.0953V19.1997H84.5881V20.8804L85.9145 19.1997H86.4987L85.0699 20.9192L86.5624 22.8187ZM89.7468 20.9857C89.7468 21.3106 89.708 21.5911 89.6305 21.8274C89.5548 22.0637 89.4514 22.2594 89.3203 22.4145C89.1911 22.5677 89.0388 22.6821 88.8635 22.7578C88.6899 22.8316 88.5063 22.8686 88.3124 22.8686C88.0798 22.8686 87.8768 22.827 87.7032 22.744C87.5316 22.659 87.3885 22.5372 87.2741 22.3785C87.1614 22.2197 87.0775 22.0268 87.0221 21.7997C86.9667 21.5708 86.939 21.3133 86.939 21.0272C86.939 20.706 86.9768 20.4272 87.0525 20.191C87.1282 19.9547 87.2307 19.7599 87.3599 19.6067C87.491 19.4516 87.6433 19.3372 87.8168 19.2633C87.9903 19.1877 88.174 19.1498 88.3678 19.1498C88.6004 19.1498 88.8025 19.1923 88.9742 19.2772C89.1477 19.3621 89.2917 19.4839 89.4062 19.6427C89.5206 19.7996 89.6055 19.9916 89.6609 20.2186C89.7181 20.4457 89.7468 20.7014 89.7468 20.9857ZM89.2345 21.0217C89.2345 20.8094 89.2179 20.6155 89.1847 20.4402C89.1533 20.263 89.1016 20.1107 89.0296 19.9833C88.9576 19.8559 88.8644 19.7571 88.7499 19.687C88.6373 19.6169 88.5007 19.5818 88.3401 19.5818C88.1851 19.5818 88.0512 19.6196 87.9386 19.6953C87.8279 19.7691 87.7365 19.8707 87.6645 19.9999C87.5925 20.1273 87.539 20.2777 87.5039 20.4512C87.4688 20.6229 87.4513 20.8057 87.4513 20.9995C87.4513 21.2136 87.4679 21.4093 87.5011 21.5865C87.5343 21.7619 87.586 21.9133 87.6562 22.0406C87.7282 22.1662 87.8205 22.264 87.9331 22.3342C88.0457 22.4043 88.1814 22.4394 88.3401 22.4394C88.4952 22.4394 88.629 22.4025 88.7416 22.3286C88.8542 22.2529 88.9465 22.1514 89.0185 22.024C89.0924 21.8948 89.1468 21.7444 89.1819 21.5727C89.217 21.401 89.2345 21.2173 89.2345 21.0217ZM92.8813 22.8187H92.3995L92.3275 20.562L92.297 19.6953L92.1281 20.1993L91.5937 21.6391H91.2531L90.7436 20.2546L90.5747 19.6953L90.5636 20.6008L90.4999 22.8187H90.0347L90.212 19.1997H90.7962L91.2835 20.562L91.4414 21.0217L91.5937 20.562L92.1059 19.1997H92.7068L92.8813 22.8187ZM95.8108 22.8187H95.318V19.6372H93.8338V22.8187H93.3409V19.1997H95.8108V22.8187ZM99.225 22.8187H98.6878L98.4358 22.0296H96.9295L96.6748 22.8187H96.1625L97.3642 19.1997H98.0399L99.225 22.8187ZM98.2946 21.5893L97.6827 19.6538L97.0707 21.5893H98.2946ZM102.066 22.8187H101.573V21.1573H100.053V22.8187H99.5601V19.1997H100.053V20.7309H101.573V19.1997H102.066V22.8187ZM103.193 19.1997V21.9354L104.691 19.1997H105.159V22.8187H104.666V20.0857L103.171 22.8187H102.7V19.1997H103.193ZM106.147 21.7416C106.186 21.6401 106.225 21.5598 106.264 21.5007C106.304 21.4416 106.345 21.3918 106.386 21.3512C106.426 21.3106 106.468 21.2782 106.51 21.2542C106.555 21.2284 106.596 21.209 106.635 21.1961C106.528 21.1758 106.432 21.138 106.347 21.0826C106.262 21.0272 106.191 20.9589 106.134 20.8777C106.078 20.7964 106.036 20.7051 106.006 20.6035C105.979 20.5002 105.965 20.394 105.965 20.2851C105.965 20.1263 105.988 19.9814 106.034 19.8504C106.082 19.7175 106.156 19.603 106.255 19.507C106.357 19.411 106.487 19.3363 106.646 19.2827C106.806 19.2273 107.003 19.1997 107.236 19.1997H108.136V22.8187H107.637V21.3207H107.263C107.191 21.3207 107.125 21.3272 107.064 21.3401C107.005 21.353 106.95 21.377 106.901 21.4121C106.853 21.4453 106.808 21.4915 106.768 21.5505C106.729 21.6096 106.694 21.6844 106.663 21.7748L106.3 22.8187H105.749L106.147 21.7416ZM106.483 20.2546C106.483 20.3672 106.498 20.4642 106.53 20.5454C106.561 20.6266 106.607 20.6958 106.668 20.7531C106.729 20.8103 106.805 20.8537 106.895 20.8832C106.987 20.9109 107.094 20.9247 107.214 20.9247H107.637V19.615H107.194C106.958 19.615 106.78 19.6704 106.66 19.7811C106.542 19.8919 106.483 20.0497 106.483 20.2546Z" fill="white"/>
</svg>
