<svg width="77" height="92" viewBox="0 0 77 92" fill="none" xmlns="http://www.w3.org/2000/svg">
<path d="M72.7519 53.637L13.7619 90.419C7.76715 94.157 -4.00105e-07 89.8467 -7.08911e-07 82.782L-3.9245e-06 9.21799C-4.2333e-06 2.15334 7.76714 -2.15696 13.7619 1.58095L72.7519 38.363C78.4027 41.8864 78.4027 50.1136 72.7519 53.637Z" fill="#262626"/>
<path d="M72.7519 53.637L13.7619 90.419C7.76715 94.157 -4.00105e-07 89.8467 -7.08911e-07 82.782L-3.9245e-06 9.21799C-4.2333e-06 2.15334 7.76714 -2.15696 13.7619 1.58095L72.7519 38.363C78.4027 41.8864 78.4027 50.1136 72.7519 53.637Z" fill="url(#paint0_linear_98_124)"/>
<defs>
<linearGradient id="paint0_linear_98_124" x1="-2.3167e-06" y1="46" x2="85" y2="46" gradientUnits="userSpaceOnUse">
<stop stop-color="#DB9554"/>
<stop offset="1" stop-color="#D07D30"/>
</linearGradient>
</defs>
</svg>
