<svg width="44" height="44" viewBox="0 0 44 44" fill="none" xmlns="http://www.w3.org/2000/svg">
<g clip-path="url(#clip0_98_86)">
<path d="M21.9997 43.9997C34.1499 43.9997 43.9995 34.1501 43.9995 22C43.9995 9.84986 34.1499 0.000244141 21.9997 0.000244141C9.84962 0.000244141 0 9.84986 0 22C0 34.1501 9.84962 43.9997 21.9997 43.9997Z" fill="#41B4E6"/>
<path d="M44.0001 22.0002C44.0001 21.4641 43.9799 20.9329 43.9422 20.4064L34.8243 11.2887L9.17578 21.3777L18.9891 31.191L19.1178 31.6544L19.2844 31.4864L19.2851 31.4871L19.1178 31.6544L29.9732 42.5098C38.1819 39.3164 44.0001 31.3382 44.0001 22.0002Z" fill="#0091C8"/>
<path d="M19.8636 25.2054L29.8058 32.7118L34.8244 11.2887L9.17578 21.3777L16.9804 23.9628L31.2239 14.4086L19.8636 25.2054Z" fill="white"/>
<path d="M16.98 23.9628L19.1175 31.6545L19.8632 25.2054L31.2235 14.4086L16.98 23.9628Z" fill="#D2D2D7"/>
<path d="M23.0946 27.645L19.1177 31.6545L19.8634 25.2054L23.0946 27.645Z" fill="#B9B9BE"/>
</g>
<defs>
<clipPath id="clip0_98_86">
<rect width="44" height="44" fill="white"/>
</clipPath>
</defs>
</svg>
