<svg width="44" height="44" viewBox="0 0 44 44" fill="none" xmlns="http://www.w3.org/2000/svg">
<g clip-path="url(#clip0_98_92)">
<path d="M22 43.4844C33.8655 43.4844 43.4844 33.8655 43.4844 22C43.4844 10.1345 33.8655 0.515625 22 0.515625C10.1345 0.515625 0.515625 10.1345 0.515625 22C0.515625 33.8655 10.1345 43.4844 22 43.4844Z" fill="#27A737"/>
<path opacity="0.49" fill-rule="evenodd" clip-rule="evenodd" d="M31.9658 12.1814C30.6933 10.9164 29.1806 9.91866 27.5168 9.24698C25.8529 8.5753 24.0715 8.24324 22.2774 8.27033C14.7831 8.27033 8.67674 14.24 8.67674 21.6792C8.67674 24.1588 9.41692 26.5467 10.6196 28.5672L8.12158 35.7308L14.5463 42.1555C16.9323 43.0371 19.4561 43.4871 21.9998 43.4844C33.3142 43.4844 42.5856 34.7383 43.4225 23.6381L31.9658 12.1814ZM16.0787 31.0469L11.6374 32.4243L13.0253 28.1996C11.584 26.2964 10.8042 23.9744 10.8046 21.587C10.8046 15.3418 15.986 10.2906 22.2773 10.2906C28.5686 10.2906 33.75 15.3418 33.8425 21.587C33.8435 23.8715 33.1393 26.1007 31.826 27.97L28.9446 25.0886C28.9065 25.0509 28.8623 25.0199 28.8139 24.9969L26.7607 24.0613L18.477 15.7719C18.3991 15.6975 18.2972 15.6533 18.1896 15.6473L17.2977 15.5957C17.0174 15.5804 16.7417 15.6726 16.527 15.8535C16.0941 16.2238 15.4013 16.9556 15.185 17.894C14.8646 19.2974 15.3581 21.0192 16.6309 22.7409C17.1832 23.4977 17.7935 24.2106 18.4561 24.8729L25.9118 32.3297C24.2793 32.8519 22.5517 33.0077 20.8521 32.786C19.1525 32.5643 17.5226 31.9705 16.0787 31.0469Z" fill="url(#paint0_linear_98_92)"/>
<path d="M22.2774 8.27033C14.7831 8.27033 8.67674 14.24 8.67674 21.6792C8.67674 24.1588 9.41692 26.5467 10.6196 28.5672L8.12158 35.7308L15.7083 33.3429C17.6514 34.3533 19.8717 34.9961 22.2774 34.9961C29.7716 34.9961 35.878 29.0265 35.878 21.5873C35.878 14.1481 29.7716 8.17847 22.2774 8.27033ZM22.3699 32.8838C20.1387 32.897 17.9521 32.2586 16.0784 31.047L11.6374 32.4243L13.0253 28.1996C11.584 26.2964 10.8042 23.9744 10.8046 21.587C10.8046 15.3418 15.986 10.2906 22.2773 10.2906C28.5686 10.2906 33.75 15.3418 33.8425 21.587C33.8426 27.8325 28.6613 32.8838 22.3699 32.8838Z" fill="white"/>
<path fill-rule="evenodd" clip-rule="evenodd" d="M17.2977 15.5957L18.1896 15.6472C18.2759 15.6526 18.359 15.6821 18.4294 15.7323C18.4998 15.7825 18.5547 15.8515 18.5879 15.9313L19.8867 18.9618C19.9197 19.0415 19.93 19.1288 19.9162 19.214C19.9025 19.2991 19.8653 19.3788 19.8088 19.444L18.6744 20.744C18.6301 20.7955 18.6022 20.8592 18.5946 20.9268C18.5869 20.9943 18.5998 21.0627 18.6315 21.1228C20.1295 23.9812 22.8484 25.1177 23.6623 25.4018C23.7295 25.4257 23.8025 25.4278 23.8709 25.4077C23.9393 25.3876 23.9997 25.3465 24.0433 25.2901L25.2292 23.7577C25.2941 23.675 25.3848 23.6164 25.4869 23.5915C25.5889 23.5666 25.6964 23.5767 25.7921 23.6202L28.814 24.9976C28.909 25.0422 28.9862 25.1173 29.0333 25.211C29.0804 25.3047 29.0947 25.4115 29.0738 25.5142L28.935 26.1766C28.8564 26.5486 28.7049 26.9013 28.4895 27.2146C28.274 27.5278 27.9987 27.7954 27.6795 28.0018C26.8569 28.5184 25.8005 28.7767 24.4497 28.3979C20.2675 27.2184 17.9036 24.4634 16.6307 22.7414C15.3578 21.0195 14.8643 19.2977 15.1847 17.8946C15.4012 16.9561 16.0938 16.2243 16.5268 15.8541C16.7415 15.6731 17.0171 15.5809 17.2975 15.5963L17.2977 15.5957Z" fill="white"/>
</g>
<defs>
<linearGradient id="paint0_linear_98_92" x1="10.4693" y1="14.3817" x2="35.2354" y2="39.1478" gradientUnits="userSpaceOnUse">
<stop stop-color="#1D1D1B"/>
<stop offset="0.369" stop-color="#1D1D1B" stop-opacity="0.856"/>
<stop offset="0.75" stop-color="#1D1D1B" stop-opacity="0.429"/>
<stop offset="1" stop-color="#1D1D1B" stop-opacity="0"/>
</linearGradient>
<clipPath id="clip0_98_92">
<rect width="44" height="44" fill="white"/>
</clipPath>
</defs>
</svg>
