<svg width="229" height="39" viewBox="0 0 229 39" fill="none" xmlns="http://www.w3.org/2000/svg">
<path d="M102.393 11.258L107.167 7.58936H91.1851V29.5656H107.167V25.8969H95.7513V20.2859H105.506V16.6172H95.7513V11.258H102.393Z" fill="#21A038"/>
<path d="M79.1121 16.1496H73.5774V11.258H82.4331L87.2067 7.58936H69.0112V29.5656H78.5241C83.8513 29.5656 86.9299 27.0478 86.9299 22.6598C86.9299 18.4515 84.1626 16.1496 79.1121 16.1496ZM78.3511 25.8969H73.5774V19.8183H78.3511C81.2569 19.8183 82.6061 20.8254 82.6061 22.8756C82.6061 24.9258 81.1531 25.8969 78.3511 25.8969Z" fill="#21A038"/>
<path d="M120.104 7.58936H111.421V29.5656H115.987V23.3431H120.139C125.673 23.3431 129.132 20.3219 129.132 15.4663C129.132 10.6106 125.673 7.58936 120.104 7.58936ZM120 19.6744H115.953V11.258H120C122.941 11.258 124.532 12.7687 124.532 15.4663C124.532 18.1638 122.941 19.6744 120 19.6744Z" fill="#21A038"/>
<path d="M61.1932 24.8174C59.9826 25.5008 58.6335 25.8605 57.2498 25.8605C53.1333 25.8605 50.1583 22.8033 50.1583 18.5951C50.1583 14.3869 53.1333 11.3296 57.2498 11.3296C58.7372 11.2937 60.1901 11.7972 61.4009 12.6964L64.6872 10.1787L64.4795 9.96286C62.577 8.20045 60.0171 7.30127 57.1115 7.30127C53.9635 7.30127 51.0923 8.41626 49.0169 10.4304C46.9412 12.5166 45.7651 15.4299 45.8344 18.4512C45.7998 21.5085 46.9412 24.4579 49.0169 26.6157C51.1962 28.738 54.1018 29.9248 57.0768 29.853C60.3631 29.853 63.2342 28.666 65.1714 26.5079L62.2311 24.242L61.1932 24.8174Z" fill="#21A038"/>
<path d="M184.03 7.62533V29.6014H188.597V20.6096H198.317V29.6014H202.883V7.62533H198.317V16.6532H188.597V7.62533H184.03ZM176.178 29.6014H180.986L172.061 7.62533H167.426L158.328 29.6014H162.929L164.763 25.1774H174.448L176.178 29.6014ZM166.146 21.5088L169.675 12.6967L172.995 21.5088H166.146ZM213.123 20.7175H215.959L222.946 29.5656H228.827L219.487 18.1998L227.651 7.58936H222.428L215.648 17.0129H213.123V7.58936H208.556V29.5656H213.123V20.7175ZM143.246 16.1856V11.294H155.181V7.62533H138.68V29.6014H148.193C153.52 29.6014 156.599 27.0838 156.599 22.6957C156.599 18.4875 153.832 16.1856 148.781 16.1856H143.246ZM143.246 25.9329V19.8543H148.02C150.926 19.8543 152.275 20.8614 152.275 22.9115C152.275 24.9618 150.857 25.9687 148.02 25.9687H143.246V25.9329Z" fill="#21A038"/>
<path d="M31.5481 7.44531C32.3783 8.56032 33.0702 9.78322 33.6582 11.078L17.6767 23.3429L10.9658 18.9549V13.7037L17.6421 18.0557L31.5481 7.44531Z" fill="#21A038"/>
<path d="M4.15129 18.5953C4.15129 18.3436 4.15129 18.1277 4.18588 17.876L0.138596 17.6602C0.138596 17.9479 0.104004 18.2716 0.104004 18.5594C0.104004 23.5949 2.07576 28.1627 5.25822 31.4717L8.12937 28.4864C5.67334 25.9686 4.15129 22.4798 4.15129 18.5953Z" fill="url(#paint0_linear_27_27)"/>
<path d="M17.6418 4.56807C17.8839 4.56807 18.0915 4.56807 18.3336 4.60404L18.5412 0.39583C18.2645 0.39583 17.9531 0.359863 17.6764 0.359863C12.8335 0.359863 8.44029 2.41002 5.25781 5.71903L8.12896 8.70434C10.5504 6.15064 13.9404 4.56807 17.6418 4.56807Z" fill="url(#paint1_linear_27_27)"/>
<path d="M17.6421 32.6226C17.3999 32.6226 17.1924 32.6226 16.9502 32.5866L16.7427 36.7949C17.0194 36.7949 17.3307 36.8307 17.6075 36.8307C22.4503 36.8307 26.8435 34.7807 30.026 31.4717L27.1548 28.4863C24.7334 31.0759 21.378 32.6226 17.6421 32.6226Z" fill="url(#paint2_linear_27_27)"/>
<path d="M25.2524 7.01371L28.6769 4.38807C25.6675 1.87034 21.8277 0.32373 17.6421 0.32373V4.53193C20.4786 4.5679 23.1078 5.46708 25.2524 7.01371Z" fill="url(#paint3_linear_27_27)"/>
<path d="M35.2148 18.5953C35.2148 17.4803 35.1109 16.4013 34.938 15.3223L31.1675 18.2356C31.1675 18.3436 31.1675 18.4874 31.1675 18.5953C31.1675 22.7316 29.4377 26.4363 26.7051 28.9899L29.4377 32.1191C32.9661 28.8101 35.2148 23.9546 35.2148 18.5953Z" fill="#21A038"/>
<path d="M17.6419 32.6228C13.6638 32.6228 10.1008 30.8244 7.64478 27.9829L4.63525 30.8244C7.85233 34.5289 12.4877 36.8309 17.6419 36.8309V32.6228Z" fill="url(#paint4_linear_27_27)"/>
<path d="M8.61367 8.20049L5.8809 5.07129C2.31791 8.41627 0.104004 13.2359 0.104004 18.5951H4.15129C4.15129 14.4948 5.8809 10.7542 8.61367 8.20049Z" fill="url(#paint5_linear_27_27)"/>
<defs>
<linearGradient id="paint0_linear_27_27" x1="4.82635" y1="30.9597" x2="0.456246" y2="18.6237" gradientUnits="userSpaceOnUse">
<stop offset="0.1444" stop-color="#F2E913"/>
<stop offset="0.3037" stop-color="#E7E518"/>
<stop offset="0.5823" stop-color="#CADB26"/>
<stop offset="0.891" stop-color="#A3CD39"/>
</linearGradient>
<linearGradient id="paint1_linear_27_27" x1="6.41148" y1="5.24417" x2="16.9853" y2="1.30913" gradientUnits="userSpaceOnUse">
<stop offset="0.0592" stop-color="#0FA8E0"/>
<stop offset="0.5385" stop-color="#0099F9"/>
<stop offset="0.9234" stop-color="#0291EB"/>
</linearGradient>
<linearGradient id="paint2_linear_27_27" x1="16.505" y1="33.2519" x2="29.0497" y2="30.4833" gradientUnits="userSpaceOnUse">
<stop offset="0.1226" stop-color="#A3CD39"/>
<stop offset="0.2846" stop-color="#86C339"/>
<stop offset="0.8693" stop-color="#21A038"/>
</linearGradient>
<linearGradient id="paint3_linear_27_27" x1="16.8105" y1="3.00405" x2="27.2653" y2="6.15423" gradientUnits="userSpaceOnUse">
<stop offset="0.0566" stop-color="#0291EB"/>
<stop offset="0.79" stop-color="#0C8ACB"/>
</linearGradient>
<linearGradient id="paint4_linear_27_27" x1="5.66433" y1="31.4911" x2="16.9187" y2="35.5976" gradientUnits="userSpaceOnUse">
<stop offset="0.1324" stop-color="#F2E913"/>
<stop offset="0.2977" stop-color="#EBE716"/>
<stop offset="0.5306" stop-color="#D9E01F"/>
<stop offset="0.8023" stop-color="#BBD62D"/>
<stop offset="0.9829" stop-color="#A3CD39"/>
</linearGradient>
<linearGradient id="paint5_linear_27_27" x1="3.20512" y1="19.1034" x2="7.92305" y2="7.11802" gradientUnits="userSpaceOnUse">
<stop offset="0.0698" stop-color="#A3CD39"/>
<stop offset="0.2599" stop-color="#81C55F"/>
<stop offset="0.9216" stop-color="#0FA8E0"/>
</linearGradient>
</defs>
</svg>
